<?xml version="1.0" encoding="UTF-8"?><svg id="Layer_2" xmlns="http://www.w3.org/2000/svg" viewBox="0 0 422.28263 125.71687"><g id="_نجران"><polygon points=".82501 79.74422 .72501 79.59419 .67502 79.24422 .67502 79.14418 .72501 79.04421 .82501 79.04421 .97501 79.04421 .97501 79.09419 1.17502 79.19423 1.27499 79.19423 1.32501 79.19423 1.375 79.09419 1.47501 78.99422 1.47501 78.89418 1.42502 78.74422 1.375 78.69423 1.22501 78.54421 1.125 78.39418 1.02499 78.19423 .97501 77.99422 1.02499 77.89418 1.07501 77.84419 1.17502 77.84419 1.22501 77.79421 1.22501 77.74422 1.22501 77.64418 1.22501 77.49422 1.375 77.39418 1.52499 77.34419 1.77499 77.34419 1.875 77.34419 1.92502 77.34419 1.97501 77.29421 2.07501 77.19423 2.22501 77.09419 2.32501 76.99422 2.57501 76.89418 2.77499 76.74422 2.92502 76.64418 3.07501 76.49422 3.32501 76.29421 3.57501 76.09419 3.67502 75.99422 3.72501 75.94423 3.77499 75.89418 3.67502 75.84419 3.57501 75.74422 3.42502 75.64418 3.32501 75.49422 3.27499 75.39418 3.32501 75.24422 3.47501 75.14418 3.57501 75.04421 3.67502 74.99422 3.72501 74.89418 3.72501 74.69423 3.72501 74.49422 3.82501 74.19423 3.92502 74.04421 4.07501 73.89418 4.27499 73.74422 4.52499 73.54421 4.82501 73.24422 4.92502 73.14418 5.07501 72.89418 5.22501 72.59419 5.375 72.29421 5.52499 72.14418 5.625 72.09419 5.72501 72.04421 5.77499 71.99422 5.77499 71.89418 5.77499 71.79421 5.67502 71.64418 5.57501 71.54421 5.42502 71.39418 5.22501 71.14418 5.125 71.09419 5.02499 70.99422 4.875 70.69423 4.77499 70.39418 4.67502 70.24422 4.57501 70.09419 4.57501 69.94423 4.57501 69.69423 4.625 69.54421 4.67502 69.34419 4.82501 69.09419 5.02499 68.89418 5.17502 68.69423 5.32501 68.54421 5.47501 68.39418 5.625 68.19423 5.77499 68.04421 5.92502 67.84419 6.02499 67.64418 6.07501 67.39418 6.125 67.24422 6.17502 67.04421 6.22501 66.89418 6.17502 66.74422 6.17502 66.59419 6.17502 66.39418 6.17502 66.24422 6.22501 66.09419 6.375 65.69423 6.52499 65.44423 6.72501 65.19423 6.92502 64.94423 7.07501 64.79421 7.32501 64.59419 7.52499 64.44423 7.67502 64.34419 7.77499 64.34419 7.82501 64.34419 7.92502 64.29421 8.02499 64.19423 8.07501 64.09419 8.07501 63.99422 8.17502 63.89418 8.27499 63.89418 8.57501 63.94423 8.77499 63.94423 8.82501 63.94423 8.92502 63.94423 9.07501 63.94423 8.82501 64.29421 8.32501 64.84419 8.17502 64.99422 7.72501 65.54421 7.375 65.94423 7.32501 66.19423 7.42502 66.54421 7.67502 66.89418 7.97501 67.19423 8.42502 67.59419 8.875 67.84419 9.47501 68.14418 9.97501 68.39418 10.27499 68.49422 10.875 68.64418 10.97501 68.69423 11.375 68.89418 11.52499 68.94423 11.625 68.99422 11.77499 69.09419 11.97501 69.19423 12.17502 69.34419 12.42502 69.54421 12.625 69.64418 13.22501 70.09419 13.77499 70.39418 13.92502 70.49422 14.07501 70.59419 14.27499 70.79421 14.52499 70.99422 14.72501 71.19423 14.97501 71.34419 15.17502 71.44423 15.32501 71.59419 15.57501 71.74422 15.72501 71.89418 15.875 71.99422 16.02499 72.14418 16.125 72.29421 16.27499 72.39418 16.375 72.49422 16.47501 72.64418 16.52499 72.74422 16.57501 72.84419 16.625 73.24422 16.625 73.54421 16.625 74.04421 16.625 74.14418 16.57501 74.19423 16.52499 74.29421 16.47501 74.34419 16.42502 74.39418 16.375 74.44423 16.32501 74.54421 16.27499 74.59419 16.22501 74.69423 16.07501 74.84419 15.92502 74.94423 15.875 75.04421 15.82501 75.14418 15.77499 75.19423 15.72501 75.29421 15.67502 75.34419 15.52499 75.49422 15.42502 75.59419 15.32501 75.69423 15.22501 75.79421 15.07501 75.89418 14.92502 75.99422 14.82501 76.09419 14.67502 76.24422 14.625 76.34419 14.52499 76.49422 14.47501 76.59419 14.42502 76.74422 14.375 76.89418 14.32501 76.99422 14.27499 77.19423 14.22501 77.39418 14.17502 77.59419 14.125 77.84419 14.07501 78.04421 14.02499 78.24422 14.02499 78.34419 13.97501 78.49422 13.97501 78.59419 13.92502 78.74422 13.92502 78.89418 13.92502 78.99422 13.875 79.14418 13.875 79.24422 13.82501 79.44423 13.77499 79.64418 13.72501 79.69423 13.72501 79.94423 13.67502 80.04421 13.625 80.14418 13.625 80.29421 13.57501 80.34419 13.52499 80.44423 13.47501 80.54421 13.32501 80.74422 13.32501 80.89418 13.27499 80.99422 13.27499 81.19423 13.32501 81.24422 13.32501 81.29421 13.375 81.34419 13.375 81.39418 13.625 81.64418 13.72501 81.69423 13.77499 81.74422 13.77499 81.84419 13.82501 81.94423 13.875 82.04421 13.92502 82.24422 13.92502 82.39418 13.97501 82.49422 13.97501 82.69423 13.97501 82.79421 13.97501 82.89418 14.02499 83.04421 14.125 83.49422 14.17502 83.54421 14.22501 83.64418 14.27499 83.84419 14.32501 83.94423 14.32501 83.99422 14.32501 84.09419 14.27499 84.14418 14.22501 84.19423 14.125 84.24422 14.02499 84.29421 13.82501 84.44423 13.52499 84.59419 13.375 84.69423 13.27499 84.69423 13.17502 84.74422 13.02499 84.79421 12.77499 84.89418 12.625 84.94423 12.57501 85.04421 12.47501 85.09419 12.47501 85.14418 12.42502 85.19423 12.42502 85.29421 12.42502 85.39418 12.42502 85.49422 12.47501 85.59419 12.52499 85.64418 12.625 85.79421 12.77499 85.94423 12.82501 86.14418 12.875 86.29421 12.875 86.44423 12.92502 86.54421 12.97501 86.69423 12.97501 86.74422 12.97501 86.84419 12.97501 87.04421 12.97501 87.14418 12.92502 87.24422 12.92502 87.34419 12.92502 87.39418 12.875 87.49422 12.82501 87.59419 12.77499 87.69423 12.77499 87.79421 12.77499 87.89418 12.72501 87.99422 12.67502 88.09419 12.67502 88.19423 12.67502 88.64418 12.67502 88.69423 12.67502 88.79421 12.72501 88.89418 12.72501 88.99422 12.77499 89.04421 12.82501 89.14418 12.875 89.19423 13.07501 89.54421 13.17502 89.59419 13.22501 89.69423 13.27499 89.79421 13.32501 89.94423 13.32501 90.04421 13.375 90.19423 13.42502 90.34419 13.42502 90.49422 13.47501 90.59419 13.47501 90.64418 13.52499 90.74422 13.52499 90.89418 13.57501 90.94423 13.52499 91.19423 13.52499 91.34419 13.52499 91.69423 13.52499 91.79421 13.47501 91.94423 13.47501 92.04421 13.47501 92.19423 13.42502 92.29421 13.42502 92.54421 13.375 92.69423 13.32501 92.84419 13.32501 92.94423 13.17502 93.29421 13.125 93.34419 13.07501 93.44423 13.07501 93.54421 13.07501 93.64418 13.02499 93.74422 12.97501 93.79421 12.92502 93.89418 12.82501 93.99422 12.77499 94.09419 12.72501 94.09419 12.67502 94.14418 12.625 94.19423 12.57501 94.19423 12.52499 94.29421 12.47501 94.34419 12.32501 94.49422 12.17502 94.69423 12.07501 94.79421 12.02499 94.89418 11.92502 94.99422 11.92502 95.04421 11.82501 95.14418 11.77499 95.24422 11.57501 95.39418 11.32501 95.59419 11.22501 95.69423 11.17502 95.74422 11.02499 95.79421 10.82501 95.94423 10.72501 95.99422 10.625 95.99422 10.57501 96.04421 10.47501 96.09419 10.375 96.09419 10.27499 96.14418 10.17502 96.14418 10.07501 96.19423 9.97501 96.24422 9.875 96.29421 9.82501 96.34419 9.77499 96.39418 9.77499 96.44423 9.72501 96.54421 9.72501 96.84419 9.72501 96.89418 9.72501 96.94423 9.67502 96.99422 9.625 97.04421 9.625 97.09419 9.52499 97.14418 9.47501 97.19423 9.42502 97.19423 9.375 97.24422 9.27499 97.24422 9.17502 97.24422 9.07501 97.19423 8.97501 97.19423 8.92502 97.14418 8.82501 97.14418 8.77499 97.09419 8.67502 97.04421 8.57501 96.99422 8.47501 96.99422 8.42502 96.99422 8.27499 97.04421 8.22501 97.09419 8.125 97.14418 8.02499 97.14418 7.875 97.19423 7.77499 97.19423 7.67502 97.19423 7.57501 97.19423 7.47501 97.19423 7.375 97.19423 7.27499 97.14418 7.17502 97.14418 7.07501 97.09419 6.97501 97.04421 6.72501 96.94423 6.67502 96.89418 6.625 96.84419 6.57501 96.79421 5.82501 96.54421 5.67502 96.44423 5.22501 95.64418 4.77499 94.94423 4.22501 94.09419 4.125 93.84419 3.97501 93.39418 3.875 93.09419 3.82501 92.69423 3.72501 92.29421 3.52499 91.74422 3.07501 91.44423 2.82501 91.39418 2.67502 91.54421 2.67502 91.84419 2.67502 92.34419 2.77499 92.79421 2.97501 93.49422 2.97501 93.89418 2.875 94.19423 2.72501 94.49422 2.27499 94.84419 2.02499 94.99422 1.92502 94.69423 1.82501 94.39418 1.77499 94.04421 1.72501 93.54421 1.72501 92.94423 1.52499 92.24422 1.32501 91.64418 1.125 90.89418 1.125 90.49422 1.07501 90.49422 1.02499 90.44423 .92502 90.34419 .92502 90.24422 .875 90.19423 .77499 90.14418 .72501 90.24422 .57501 90.24422 .57501 90.14418 .57501 90.04421 .52499 89.94423 .42502 89.89418 .27499 89.99422 .17502 90.04421 .125 89.99422 .125 89.84419 .17502 89.74422 .32501 89.49422 .47501 89.24422 .52499 89.09419 .57501 88.74422 .57501 88.44423 .625 88.19423 .67502 87.89418 .72501 87.69423 .77499 87.49422 .72501 87.19423 .67502 86.89418 .82501 86.49422 .82501 86.29421 .875 86.09419 .92502 85.49422 .92502 85.34419 .875 85.19423 .875 84.99422 .77499 84.79421 .57501 84.59419 .42502 84.44423 .27499 84.29421 .17502 84.14418 .17502 83.94423 .22501 83.74422 .375 83.59419 .42502 83.34419 .47501 83.19423 .47501 82.99422 .47501 82.69423 .52499 82.54421 .57501 82.24422 .67502 82.14418 .82501 81.99422 .92502 81.99422 .97501 81.99422 1.07501 81.89418 1.17502 81.89418 1.27499 81.89418 1.42502 81.69423 1.47501 81.59419 1.57501 81.49422 1.57501 81.34419 1.47501 81.19423 1.32501 80.89418 1.07501 80.44423 .97501 80.14418 .92502 79.99422 .875 79.84419 .82501 79.74422" fill="#f2e10a" fill-rule="evenodd" stroke="#fff" stroke-miterlimit="10" stroke-width=".25"/><polygon points="12.97501 93.79421 13.02499 93.74422 13.07501 93.64418 13.07501 93.54421 13.07501 93.44423 13.125 93.34419 13.17502 93.29421 13.32501 92.94423 13.32501 92.84419 13.375 92.69423 13.42502 92.54421 13.42502 92.29421 13.47501 92.19423 13.47501 92.04421 13.47501 91.94423 13.52499 91.79421 13.52499 91.69423 13.52499 91.34419 13.52499 91.19423 13.57501 90.94423 13.52499 90.89418 13.52499 90.74422 13.47501 90.64418 13.47501 90.59419 13.42502 90.49422 13.42502 90.34419 13.375 90.19423 13.32501 90.04421 13.32501 89.94423 13.27499 89.79421 13.22501 89.69423 13.17502 89.59419 13.07501 89.54421 12.875 89.19423 12.82501 89.14418 12.77499 89.04421 12.72501 88.99422 12.72501 88.89418 12.67502 88.79421 12.67502 88.69423 12.67502 88.64418 12.67502 88.19423 12.67502 88.09419 12.72501 87.99422 12.77499 87.89418 12.77499 87.79421 12.77499 87.69423 12.82501 87.59419 12.875 87.49422 12.92502 87.39418 12.92502 87.34419 12.92502 87.24422 12.97501 87.14418 12.97501 87.04421 12.97501 86.84419 12.97501 86.74422 12.97501 86.69423 12.92502 86.54421 12.875 86.44423 12.875 86.29421 12.82501 86.14418 12.77499 85.94423 12.625 85.79421 12.52499 85.64418 12.47501 85.59419 12.42502 85.49422 12.42502 85.39418 12.42502 85.29421 12.42502 85.19423 12.47501 85.14418 12.47501 85.09419 12.57501 85.04421 12.625 84.94423 12.77499 84.89418 13.02499 84.79421 13.17502 84.74422 13.27499 84.69423 13.375 84.69423 13.52499 84.59419 13.82501 84.44423 14.02499 84.29421 14.125 84.24422 14.22501 84.19423 14.27499 84.14418 14.32501 84.09419 14.32501 83.99422 14.32501 83.94423 14.27499 83.84419 14.22501 83.64418 14.17502 83.54421 14.125 83.49422 14.02499 83.04421 13.97501 82.89418 13.97501 82.79421 13.97501 82.69423 13.97501 82.49422 13.92502 82.39418 13.92502 82.24422 13.875 82.04421 13.82501 81.94423 13.77499 81.84419 13.77499 81.74422 13.72501 81.69423 13.625 81.64418 13.375 81.39418 13.375 81.34419 13.32501 81.29421 13.32501 81.24422 13.27499 81.19423 13.27499 80.99422 13.32501 80.89418 13.32501 80.74422 13.47501 80.54421 13.52499 80.44423 13.57501 80.34419 13.625 80.29421 13.625 80.14418 13.67502 80.04421 13.72501 79.94423 13.72501 79.69423 13.77499 79.64418 13.82501 79.44423 13.875 79.24422 13.875 79.14418 13.92502 78.99422 13.92502 78.89418 13.92502 78.74422 13.97501 78.59419 13.97501 78.49422 14.02499 78.34419 14.02499 78.24422 14.07501 78.04421 14.125 77.84419 14.17502 77.59419 14.22501 77.39418 14.27499 77.19423 14.32501 76.99422 14.375 76.89418 14.42502 76.74422 14.47501 76.59419 14.625 76.64418 14.72501 76.69423 14.92502 76.74422 15.02499 76.79421 15.17502 76.89418 15.375 76.99422 15.57501 77.09419 15.72501 77.14418 15.77499 77.24422 15.92502 77.29421 16.07501 77.34419 16.27499 77.44423 16.47501 77.54421 16.57501 77.59419 16.72501 77.64418 16.92502 77.69423 17.07501 77.74422 17.22501 77.79421 17.375 77.84419 17.52499 77.84419 17.67502 77.84419 17.72501 77.89418 17.77499 77.89418 17.92502 77.89418 18.02499 77.94423 18.125 77.89418 18.22501 77.89418 18.42502 77.84419 18.625 77.79421 18.97501 77.64418 19.07501 77.59419 19.17502 77.59419 19.27499 77.54421 19.875 77.54421 20.02499 77.54421 20.07501 77.59419 20.52499 77.74422 20.72501 77.84419 20.77499 77.89418 20.82501 77.94423 20.875 78.04421 20.92502 78.09419 20.97501 78.09419 21.17502 78.19423 21.22501 78.24422 21.27499 78.29421 21.375 78.34419 21.47501 78.39418 21.52499 78.39418 21.57501 78.44423 21.97501 78.74422 22.02499 78.74422 22.07501 78.79421 22.125 78.84419 22.22501 78.84419 22.27499 78.84419 22.375 78.84419 22.47501 78.84419 22.52499 78.84419 22.67502 78.79421 23.52499 78.29421 23.625 78.29421 23.72501 78.24422 23.82501 78.19423 23.92502 78.19423 24.02499 78.14418 24.125 78.14418 24.27499 78.09419 24.42502 78.09419 24.67502 78.09419 24.875 78.09419 24.97501 78.09419 25.07501 78.14418 25.22501 78.19423 25.27499 78.24422 25.32501 78.29421 25.42502 78.39418 25.52499 78.44423 25.625 78.49422 25.72501 78.54421 25.97501 78.59419 26.17502 78.64418 26.32501 78.69423 26.47501 78.69423 26.625 78.69423 26.77499 78.69423 26.92502 78.69423 27.07501 78.69423 27.22501 78.64418 27.32501 78.64418 27.47501 78.64418 27.625 78.64418 27.77499 78.59419 27.97501 78.59419 28.17502 78.54421 28.27499 78.54421 28.47501 78.54421 28.67502 78.54421 28.82501 78.59419 29.02499 78.64418 29.17502 78.69423 29.32501 78.79421 29.52499 78.84419 29.67502 78.94423 29.82501 79.04421 29.92502 79.14418 30.07501 79.19423 30.22501 79.29421 30.375 79.34419 30.52499 79.44423 30.72501 79.54421 30.82501 79.54421 30.875 79.59419 30.97501 79.59419 31.02499 79.64418 31.07501 79.69423 31.17502 79.74422 31.22501 79.79421 31.27499 79.84419 31.32501 79.89418 31.375 79.89418 31.47501 79.89418 31.57501 79.94423 31.72501 79.94423 31.875 79.94423 32.02499 79.94423 32.17502 79.94423 32.27499 79.94423 32.375 79.94423 32.52499 79.94423 32.625 79.94423 32.72501 79.94423 32.875 79.89418 33.02499 79.89418 33.125 79.89418 33.22501 79.89418 33.27499 79.89418 33.32501 79.89418 33.375 79.89418 33.42502 79.89418 33.52499 79.89418 33.57501 79.84419 33.67502 79.84419 33.77499 79.84419 33.92502 79.84419 35.125 79.84419 35.32501 79.84419 35.42502 79.84419 35.52499 79.84419 35.57501 79.89418 35.67502 79.89418 35.77499 79.94423 35.875 79.94423 35.92502 79.94423 35.97501 79.99422 36.07501 79.99422 36.17502 79.99422 36.22501 79.99422 36.22501 80.14418 36.07501 81.34419 35.77499 81.79421 35.02499 82.29421 34.02499 82.69423 33.67502 83.04421 33.17502 83.94423 33.07501 84.34419 32.82501 85.04421 32.57501 85.99422 32.07501 86.94423 31.625 87.69423 31.625 88.19423 31.57501 88.19423 31.42502 88.14418 31.27499 88.09419 31.125 87.99422 31.02499 87.99422 30.875 87.94423 30.82501 87.94423 30.67502 87.89418 30.42502 87.84419 30.22501 87.79421 29.97501 87.74422 29.82501 87.69423 29.67502 87.64418 29.52499 87.59419 29.42502 87.49422 29.375 87.39418 29.27499 87.24422 29.17502 87.19423 29.125 87.09419 29.07501 87.04421 28.97501 86.94423 28.82501 86.89418 28.72501 86.84419 28.67502 86.84419 28.57501 86.84419 28.47501 86.79421 28.375 86.79421 28.32501 86.69423 28.17502 86.59419 28.07501 86.49422 27.92502 86.39418 27.875 86.29421 27.82501 86.24422 27.77499 86.14418 27.72501 86.09419 27.67502 85.99422 27.57501 85.94423 27.47501 85.89418 27.42502 85.84419 27.375 85.79421 27.27499 85.69423 27.07501 85.59419 26.97501 85.54421 26.77499 85.49422 26.67502 85.49422 26.52499 85.49422 26.17502 85.49422 26.07501 85.54421 25.92502 85.54421 25.82501 85.59419 25.67502 85.64418 25.52499 85.64418 25.42502 85.69423 25.22501 85.69423 25.02499 85.74422 24.82501 85.74422 24.77499 85.74422 24.625 85.74422 24.52499 85.79421 24.07501 85.89418 23.42502 86.09419 23.32501 86.09419 23.17502 86.14418 23.07501 86.14418 22.97501 86.19423 22.875 86.24422 22.82501 86.29421 22.77499 86.34419 22.72501 86.44423 22.625 86.59419 22.52499 86.69423 22.47501 86.79421 22.32501 86.89418 22.17502 86.99422 22.02499 87.04421 21.92502 87.09419 21.77499 87.19423 21.625 87.29421 21.42502 87.44423 21.22501 87.64418 21.07501 87.74422 21.02499 87.84419 20.97501 87.94423 20.97501 88.04421 20.92502 88.09419 20.875 88.14418 20.77499 88.14418 20.72501 88.24422 20.67502 88.29421 20.625 88.39418 20.52499 88.54421 20.47501 88.69423 20.375 88.94423 20.27499 89.04421 20.22501 89.14418 20.125 89.24422 19.97501 89.29421 19.92502 89.34419 19.57501 89.54421 19.42502 89.64418 19.27499 89.69423 19.17502 89.79421 19.07501 89.84419 18.67502 90.14418 18.57501 90.19423 18.47501 90.19423 18.375 90.24422 18.17502 90.34419 18.07501 90.34419 17.97501 90.44423 17.82501 90.49422 17.42502 90.64418 17.32501 90.64418 17.22501 90.74422 17.125 90.79421 17.02499 90.94423 16.92502 91.04421 16.82501 91.24422 16.67502 91.39418 16.42502 91.69423 16.32501 91.79421 16.22501 91.89418 16.07501 91.99422 15.97501 92.09419 15.625 92.34419 15.42502 92.44423 15.27499 92.54421 15.02499 92.64418 14.72501 92.79421 14.625 92.84419 14.52499 92.84419 14.47501 92.89418 14.42502 92.94423 14.32501 92.99422 14.32501 93.04421 14.32501 93.09419 14.27499 93.14418 14.27499 93.24422 14.17502 93.34419 14.125 93.39418 13.67502 93.79421 13.625 93.84419 13.57501 93.84419 13.47501 93.84419 13.375 93.79421 13.22501 93.79421 13.125 93.84419 13.02499 93.84419 12.97501 93.79421" fill="#f2e10a" fill-rule="evenodd" stroke="#fff" stroke-miterlimit="10" stroke-width=".25"/><polygon points="37.21332 101.51271 37.21719 101.5005 37.22778 101.49019 37.43112 101.31294 37.55612 101.22109 37.70074 101.11562 38.16061 100.70192 38.42322 100.472 38.69281 100.20888 38.96191 99.9463 39.27771 99.65712 39.37613 99.57179 39.50113 99.45326 39.57996 99.38753 39.65878 99.34181 39.77023 99.26302 39.9794 99.04811 40.00723 99.01949 40.08606 98.92763 40.16437 98.86189 40.30243 98.73732 40.48016 98.58626 40.71011 98.40199 40.85654 98.28157 40.89386 98.25087 41.05804 98.13991 41.23578 98.00838 41.30856 97.93556 41.37436 97.88283 41.41299 97.83711 41.44565 97.75179 41.83453 96.84938 41.73926 96.69814 41.40308 96.47395 41.26859 96.41231 41.38065 95.96407 41.29099 95.89119 40.75867 95.88002 40.1301 95.94325 40.11215 95.81831 40.11215 95.64711 40.06897 95.48897 40.05493 95.33131 40.04034 95.15962 40.12622 95.04518 40.26981 94.94527 40.62778 94.87294 41.00031 94.87294 41.25787 94.87294 41.43008 94.88753 41.53 94.91615 41.65952 94.90205 41.82773 94.96584 42.017 94.97237 42.25397 94.99849 42.43771 95.04463 42.59589 95.07076 42.72693 95.11043 42.8454 95.15608 42.95737 95.20882 43.08841 95.21584 43.24606 95.20229 43.36453 95.18221 43.42206 95.16847 43.4248 95.1808 43.48669 95.62288 43.56628 95.8351 43.7785 96.2065 44.07913 96.48946 44.72464 96.76357 45.33478 96.79897 47.03253 96.92275 49.04861 96.89619 50.13657 95.0425 50.27991 94.36153 49.84985 92.83839 49.40186 90.97475 49.16888 89.86372 48.97177 88.7527 48.7388 87.62373 48.70071 87.62294 48.69998 87.62007 48.64276 87.55531 48.56393 87.49104 48.44946 87.41927 48.35608 87.34749 48.27725 87.29726 48.17685 87.20436 48.10504 87.11855 48.02621 87.02516 47.95493 86.93178 47.89017 86.85292 47.84698 86.76711 47.80432 86.6667 47.78271 86.55171 47.76816 86.41567 47.76114 86.22237 47.76816 86.06471 47.7757 85.86385 47.79678 85.71327 47.8259 85.46974 47.85452 85.26894 47.86856 84.78139 47.86856 84.63081 47.89017 84.04335 47.89017 83.65627 47.87561 83.40523 47.87561 83.22652 47.88315 83.0829 47.91174 82.92525 47.93335 82.76711 47.99762 82.55928 48.06238 82.40913 48.10504 82.32277 48.14822 82.22237 48.16278 82.09334 48.18387 81.95027 48.19843 81.76448 48.20547 81.67061 48.24161 81.51997 48.28058 81.28902 48.3129 81.09724 48.39172 80.71718 48.42789 80.55953 48.47809 80.4521 48.49966 80.38783 48.51373 80.28041 48.54236 80.1584 48.55692 80.03639 48.57095 79.94301 48.69998 79.64931 48.73615 79.54939 48.76526 79.40578 48.80743 79.29085 48.8436 79.16933 48.8938 79.05434 48.95102 78.94692 48.97263 78.86104 49.01581 78.71748 49.03687 78.59547 49.08005 78.43831 49.13077 78.3163 49.15887 78.15114 49.18048 78.03664 49.18048 77.85744 49.1875 77.31972 49.14984 77.11336 49.16592 77.04909 49.16592 76.95869 49.15536 76.85225 49.11823 76.7303 49.05948 76.60225 49.03287 76.51741 48.99573 76.43202 48.97464 76.35225 48.95856 76.26186 48.9425 76.16597 48.92642 76.03243 48.93747 75.87325 48.9425 75.74574 48.94803 75.63374 48.96408 75.52785 48.99069 75.3998 49.03839 75.24568 49.08105 75.12318 49.12274 75.02223 49.17645 74.89925 49.20859 74.79884 49.23972 74.6974 49.24573 74.59145 49.25629 74.46895 49.27234 74.33595 49.28842 74.21895 49.30447 74.13362 49.34164 74.02718 49.39487 74.01106 49.47467 74.00002 49.56506 73.99001 49.67651 73.99001 49.77792 73.99001 49.87381 74.01106 49.99081 74.02718 50.09726 74.06429 50.20871 74.09645 50.34726 74.14967 50.62943 74.24001 50.75143 74.28774 50.90054 74.31984 50.99646 74.34096 51.06522 74.3625 51.24646 74.42079 51.43274 74.49056 51.5708 74.53774 51.67725 74.5649 51.78922 74.61256 51.86353 74.64974 51.94336 74.6924 52.0553 74.75063 52.29428 74.86256 52.41681 74.92635 52.53378 74.96901 52.63519 75.00618 52.74213 75.05385 52.82648 75.08601 52.90631 75.10707 52.99667 75.12318 53.34259 75.14473 53.52335 75.1498 53.61874 75.13924 53.78943 75.10707 53.89587 75.06996 54.04498 75.02779 54.34323 74.94746 54.5556 74.86256 54.72076 74.8149 54.79507 74.77724 54.92813 74.75063 55.02905 74.71901 55.14603 74.6974 55.27957 74.6653 55.42319 74.65523 55.57175 74.66023 55.81125 74.67635 55.97641 74.67635 56.11453 74.70296 56.22098 74.7245 56.36453 74.75063 56.47098 74.77724 56.58292 74.80385 56.74759 74.85707 56.96048 74.9424 57.19443 75.02779 57.30643 75.06996 57.41287 75.11263 57.5936 75.17134 57.69504 75.19746 57.81198 75.23512 57.90237 75.27278 57.98221 75.34157 58.36526 75.63374 58.5726 75.81502 58.64194 75.86824 58.71622 75.92647 58.78549 75.96413 58.84927 76.0063 58.95621 76.05501 59.09927 76.11275 59.24289 76.18752 59.36038 76.22969 59.54611 76.30452 59.65811 76.35774 59.81223 76.42152 59.91867 76.4637 60.01456 76.4958 60.16367 76.53847 60.26462 76.55959 60.39761 76.56508 60.52066 76.59169 60.5889 76.6183 60.66373 76.63991 60.75961 76.65047 60.83945 76.66603 60.92429 76.69264 61.00412 76.71419 61.08395 76.7408 61.16379 76.75691 61.20645 76.77797 61.25967 76.82564 61.33951 76.87386 61.38724 76.90047 61.45096 76.90047 61.58401 76.88991 63.14651 75.13026 68.70822 73.06081 72.7825 70.79726 76.01602 70.27992 77.56815 70.02126 87.78738 68.00789 87.77933 67.37123 87.79489 67.23921 87.82602 67.16139 87.85715 67.08406 87.91135 67.01381 87.98117 66.91286 88.0585 66.7964 88.21414 66.59505 88.26883 66.50923 88.29196 66.42384 88.34616 66.33046 88.3848 66.22151 88.41592 66.09804 88.43954 65.98103 88.44705 65.88814 88.39285 65.80281 88.35422 65.65523 88.33865 65.50758 88.3306 65.368 88.3306 65.25154 88.33865 65.11952 88.37729 64.9789 88.43954 64.8243 88.47818 64.7776 88.58713 64.66109 88.66446 64.58327 88.75784 64.46681 88.88187 64.31972 89.24686 63.83821 89.29355 63.74483 89.36337 63.64394 89.42563 63.55055 89.48788 63.4496 89.78256 62.89082 89.99246 62.48665 90.13254 62.24617 90.21786 62.12972 90.27206 62.0132 90.31558 61.86122 90.31876 61.85005 90.49704 61.35347 90.52866 61.24452 90.5593 61.13557 90.57486 61.03468 90.60599 60.93379 90.63712 60.8409 90.70688 60.70082 90.74551 60.62349 90.94785 60.37495 91.01767 60.27406 91.04074 60.14198 91.06387 60.06416 91.08743 59.93965 91.095 59.8232 91.11057 59.62135 91.11856 59.49733 91.11057 59.34224 91.08743 59.21773 91.08743 59.0937 91.103 58.69759 91.11856 58.40987 91.13412 58.28584 91.15726 58.1227 91.21951 57.90529 91.2662 57.77327 91.3129 57.68037 91.3204 57.57948 91.32846 57.46297 91.35153 57.32289 91.3746 57.19087 91.40573 57.09798 91.45999 56.98854 91.49112 56.86501 91.53024 56.76411 91.60007 56.6476 91.66183 56.53865 91.73965 56.46889 91.8486 56.34486 91.94144 56.25148 92.01926 56.19728 92.12021 56.13503 92.24472 56.0652 92.36874 55.99544 92.50076 55.93318 92.61722 55.87093 92.72617 55.81673 92.80301 55.75447 92.88132 55.70778 92.93558 55.62239 92.97421 55.5215 92.98227 55.24989 93.00534 55.16451 93.05154 55.08669 93.12985 55.02443 93.23074 54.96217 93.26944 54.89241 93.26944 54.81508 93.23141 54.77144 93.21518 54.75282 93.17911 54.7206 97.26639 47.4142 97.80441 47.13814 98.81155 49.3412 99.46213 51.42311 100.76334 56.36769 111.69351 67.29787 116.11716 75.18001 117.92166 76.37355 119.59421 77.71156 121.88754 79.77333 123.01724 81.14516 124.75223 82.79939 125.84073 84.2961 126.27811 84.89748 126.36612 85.01851 126.72922 86.14821 127.01169 86.87447 127.53616 88.28664 128.22208 89.4164 129.02902 89.73915 130.60257 91.95827 131.98074 93.92702 132.29721 94.37911 133.06381 95.50887 135.60568 97.20345 137.0582 98.21211 137.74411 98.81734 138.83347 100.43123 139.55972 102.20656 139.60013 102.77138 139.88254 107.81484 139.96909 111.24733 140.0372 111.23848 140.03195 111.2632 139.23892 111.36665 125.85049 110.52986 117.56558 109.54341 108.18167 108.42622 90.7059 106.34602 81.50131 101.32533 78.71237 101.32533 74.33279 101.32533 65.02957 101.32533 55.08023 101.32533 53.0509 101.32533 48.86703 102.71999 43.84634 101.32533 38.79779 101.32533 37.21332 101.51271" fill="#f2e10a" fill-rule="evenodd" stroke="#fff" stroke-miterlimit="10" stroke-width=".25"/><polygon points="6.375 104.49422 6.32501 104.39418 6.27499 104.19423 6.22501 104.09419 6.125 103.99422 6.02499 103.89418 5.875 103.79421 5.72501 103.69423 5.625 103.54421 5.375 103.29421 5.22501 103.09419 5.02499 102.89418 4.92502 102.74422 4.875 102.64418 4.92502 102.49422 4.97501 102.39418 5.02499 102.24422 5.07501 102.14418 4.97501 101.99422 4.875 101.84419 4.67502 101.69423 4.57501 101.54421 4.52499 101.44423 4.625 101.39418 4.77499 101.39418 4.92502 101.39418 4.97501 101.39418 5.02499 101.39418 5.07501 101.44423 5.27499 101.44423 5.42502 101.44423 5.57501 101.39418 5.625 101.24422 5.67502 101.09419 5.82501 100.99422 6.02499 100.94423 6.27499 100.89418 6.375 100.74422 6.47501 100.69423 6.52499 100.54421 6.52499 100.44423 6.52499 100.29421 6.47501 100.19423 6.27499 100.04421 6.17502 99.94423 6.07501 99.84419 6.02499 99.69423 6.02499 99.49422 5.97501 99.29421 5.92502 99.09419 5.875 98.89418 5.77499 98.74422 5.625 98.64418 5.47501 98.69423 5.42502 98.69423 5.375 98.69423 5.27499 98.74422 5.125 98.69423 4.97501 98.64418 4.82501 98.49422 4.875 98.19423 4.97501 97.99422 4.97501 97.69423 4.375 97.34419 3.02499 96.64418 2.92502 96.64418 2.82501 96.34419 2.57501 95.99422 2.22501 95.54421 2.07501 95.04421 2.02499 94.99422 2.27499 94.84419 2.72501 94.49422 2.875 94.19423 2.97501 93.89418 2.97501 93.49422 2.77499 92.79421 2.67502 92.34419 2.67502 91.84419 2.67502 91.54421 2.82501 91.39418 3.07501 91.44423 3.52499 91.74422 3.72501 92.29421 3.82501 92.69423 3.875 93.09419 3.97501 93.39418 4.125 93.84419 4.22501 94.09419 4.77499 94.94423 5.22501 95.64418 5.67502 96.44423 5.82501 96.54421 6.57501 96.79421 6.625 96.84419 6.67502 96.89418 6.72501 96.94423 6.97501 97.04421 7.07501 97.09419 7.17502 97.14418 7.27499 97.14418 7.375 97.19423 7.47501 97.19423 7.57501 97.19423 7.67502 97.19423 7.77499 97.19423 7.875 97.19423 8.02499 97.14418 8.125 97.14418 8.22501 97.09419 8.27499 97.04421 8.42502 96.99422 8.47501 96.99422 8.57501 96.99422 8.67502 97.04421 8.77499 97.09419 8.82501 97.14418 8.92502 97.14418 8.97501 97.19423 9.07501 97.19423 9.17502 97.24422 9.27499 97.24422 9.375 97.24422 9.42502 97.19423 9.47501 97.19423 9.52499 97.14418 9.625 97.09419 9.625 97.04421 9.67502 96.99422 9.72501 96.94423 9.72501 96.89418 9.72501 96.84419 9.72501 96.54421 9.77499 96.44423 9.77499 96.39418 9.82501 96.34419 9.875 96.29421 9.97501 96.24422 10.07501 96.19423 10.17502 96.14418 10.27499 96.14418 10.375 96.09419 10.47501 96.09419 10.57501 96.04421 10.625 95.99422 10.72501 95.99422 10.82501 95.94423 11.02499 95.79421 11.17502 95.74422 11.22501 95.69423 11.32501 95.59419 11.57501 95.39418 11.77499 95.24422 11.82501 95.14418 11.92502 95.04421 11.92502 94.99422 12.02499 94.89418 12.07501 94.79421 12.17502 94.69423 12.32501 94.49422 12.47501 94.34419 12.52499 94.29421 12.57501 94.19423 12.625 94.19423 12.67502 94.14418 12.72501 94.09419 12.77499 94.09419 12.82501 93.99422 12.92502 93.89418 12.97501 93.79421 13.02499 93.84419 13.125 93.84419 13.22501 93.79421 13.375 93.79421 13.47501 93.84419 13.57501 93.84419 13.625 93.84419 13.67502 93.79421 14.125 93.39418 14.17502 93.34419 14.27499 93.24422 14.27499 93.14418 14.32501 93.09419 14.32501 93.04421 14.32501 92.99422 14.42502 92.94423 14.47501 92.89418 14.52499 92.84419 14.625 92.84419 14.72501 92.79421 15.02499 92.64418 15.27499 92.54421 15.42502 92.44423 15.625 92.34419 15.97501 92.09419 16.07501 91.99422 16.22501 91.89418 16.32501 91.79421 16.42502 91.69423 16.67502 91.39418 16.82501 91.24422 16.92502 91.04421 17.02499 90.94423 17.125 90.79421 17.22501 90.74422 17.32501 90.64418 17.42502 90.64418 17.82501 90.49422 17.97501 90.44423 18.07501 90.34419 18.17502 90.34419 18.375 90.24422 18.47501 90.19423 18.57501 90.19423 18.67502 90.14418 19.07501 89.84419 19.17502 89.79421 19.27499 89.69423 19.42502 89.64418 19.57501 89.54421 19.92502 89.34419 19.97501 89.29421 20.125 89.24422 20.22501 89.14418 20.27499 89.04421 20.375 88.94423 20.47501 88.69423 20.52499 88.54421 20.625 88.39418 20.67502 88.29421 20.72501 88.24422 20.77499 88.14418 20.875 88.14418 20.92502 88.09419 20.97501 88.04421 20.97501 87.94423 21.02499 87.84419 21.07501 87.74422 21.22501 87.64418 21.42502 87.44423 21.625 87.29421 21.77499 87.19423 21.92502 87.09419 22.02499 87.04421 22.17502 86.99422 22.32501 86.89418 22.47501 86.79421 22.52499 86.69423 22.625 86.59419 22.72501 86.44423 22.77499 86.34419 22.82501 86.29421 22.875 86.24422 22.97501 86.19423 23.07501 86.14418 23.17502 86.14418 23.32501 86.09419 23.42502 86.09419 24.07501 85.89418 24.52499 85.79421 24.625 85.74422 24.77499 85.74422 24.82501 85.74422 25.02499 85.74422 25.22501 85.69423 25.42502 85.69423 25.52499 85.64418 25.67502 85.64418 25.82501 85.59419 25.92502 85.54421 26.07501 85.54421 26.17502 85.49422 26.52499 85.49422 26.67502 85.49422 26.77499 85.49422 26.97501 85.54421 27.07501 85.59419 27.27499 85.69423 27.375 85.79421 27.42502 85.84419 27.47501 85.89418 27.57501 85.94423 27.67502 85.99422 27.72501 86.09419 27.77499 86.14418 27.82501 86.24422 27.875 86.29421 27.92502 86.39418 28.07501 86.49422 28.17502 86.59419 28.32501 86.69423 28.375 86.79421 28.47501 86.79421 28.57501 86.84419 28.67502 86.84419 28.72501 86.84419 28.82501 86.89418 28.97501 86.94423 29.07501 87.04421 29.125 87.09419 29.17502 87.19423 29.27499 87.24422 29.375 87.39418 29.42502 87.49422 29.52499 87.59419 29.67502 87.64418 29.82501 87.69423 29.97501 87.74422 30.22501 87.79421 30.42502 87.84419 30.67502 87.89418 30.82501 87.94423 30.875 87.94423 31.02499 87.99422 31.125 87.99422 31.27499 88.09419 31.42502 88.14418 31.57501 88.19423 31.625 88.19423 31.625 87.69423 32.07501 86.94423 32.57501 85.99422 32.82501 85.04421 33.07501 84.34419 33.17502 83.94423 33.67502 83.04421 34.02499 82.69423 35.02499 82.29421 35.77499 81.79421 36.07501 81.34419 36.22501 80.14418 36.22501 79.99422 36.27499 79.99422 36.32501 79.99422 36.97501 79.69423 37.42502 79.44423 37.57501 79.39418 37.72501 79.29421 37.82501 79.29421 37.97501 79.24422 38.02499 79.19423 38.125 79.14418 38.27499 79.09419 38.32501 79.04421 38.42502 78.99422 38.52499 78.94423 38.57501 78.89418 38.625 78.84419 38.72501 78.79421 38.77499 78.69423 38.82501 78.59419 38.875 78.54421 38.875 78.44423 38.875 78.34419 38.92502 78.24422 38.97501 78.14418 39.02499 78.04421 39.07501 77.94423 39.125 77.79421 39.22501 77.69423 39.27499 77.59419 39.375 77.49422 39.47501 77.39418 39.57501 77.29421 39.67502 77.19423 39.72501 77.14418 39.82501 77.09419 39.875 77.09419 39.97501 77.09419 40.07501 77.09419 40.125 77.14418 40.17502 77.24422 40.27499 77.29421 40.47501 77.54421 40.52499 77.59419 40.57501 77.64418 40.72501 77.94423 40.72501 77.99422 40.77499 77.99422 41.67502 78.49422 42.77499 78.54421 44.72501 78.99422 45.97501 79.59419 47.22501 80.54421 47.82501 81.14418 48.27499 81.29421 48.22501 81.54421 48.22501 81.69423 48.17499 81.74422 48.17499 81.94423 48.17499 82.09419 48.125 82.24422 48.125 82.34419 48.07501 82.39418 47.97501 82.54421 47.92499 82.74422 47.92499 82.94423 47.875 83.09419 47.875 83.24422 47.875 83.39418 47.875 83.64418 47.875 84.04421 47.875 84.64418 47.875 84.79421 47.875 85.24422 47.82501 85.49422 47.77499 85.69423 47.77499 85.84419 47.77499 86.04421 47.77499 86.24422 47.77499 86.39418 47.77499 86.54421 47.82501 86.64418 47.82501 86.74422 47.875 86.84419 47.97501 86.94423 48.02499 87.04421 48.125 87.09419 48.17499 87.19423 48.27499 87.29421 48.375 87.34419 48.42499 87.44423 48.57501 87.49422 48.625 87.54421 48.67499 87.64418 48.72501 87.64418 48.97501 88.74422 49.17499 89.84419 49.42499 90.99422 49.82501 92.84419 50.27499 94.34419 50.125 95.04421 49.02499 96.89418 47.02499 96.94423 45.32501 96.79421 44.72501 96.74422 44.07501 96.49422 43.77499 96.19423 43.57501 95.84419 43.47501 95.64418 43.42499 95.19423 43.42499 95.14418 43.375 95.19423 43.22501 95.19423 43.07501 95.19423 42.97501 95.19423 42.82501 95.14418 42.72501 95.09419 42.57501 95.09419 42.42502 95.04421 42.27499 94.99422 42.02499 94.99422 41.82501 94.94423 41.67502 94.89418 41.52499 94.89418 41.42502 94.89418 41.27499 94.89418 41.02499 94.89418 40.625 94.89418 40.27499 94.94423 40.125 95.04421 40.02499 95.14418 40.07501 95.34419 40.07501 95.49422 40.125 95.64418 40.125 95.79421 40.125 95.94423 40.77499 95.89418 41.27499 95.89418 41.375 95.94423 41.27499 96.39418 41.42502 96.49422 41.72501 96.69423 41.82501 96.84419 41.42502 97.74422 41.42502 97.84419 41.375 97.89418 41.32501 97.94423 41.22501 97.99422 41.07501 98.14418 40.875 98.24422 40.875 98.29421 40.72501 98.39418 40.47501 98.59419 40.32501 98.74422 40.17502 98.84419 40.07501 98.94423 40.02499 99.04421 39.97501 99.04421 39.77499 99.24422 39.67502 99.34419 39.57501 99.39418 39.52499 99.44423 39.375 99.59419 39.27499 99.64418 38.97501 99.94423 38.67502 100.19423 38.42502 100.49422 38.17502 100.69423 37.72501 101.09419 37.57501 101.24422 37.42502 101.29421 37.22501 101.49422 34.02499 101.89418 33.625 101.94423 33.17502 101.94423 32.47501 102.04421 31.82501 102.09419 30.875 102.29421 29.97501 102.24422 29.42502 102.34419 27.375 102.54421 27.32501 102.54421 27.125 103.24422 26.97501 103.84419 25.97501 104.69423 25.47501 104.69423 23.77499 102.69423 22.92502 102.74422 21.57501 103.44423 20.97501 102.89418 20.625 103.44423 20.02499 104.39418 18.875 106.29421 18.82501 106.34419 18.72501 106.49422 15.67502 105.94423 15.57501 105.94423 15.52499 105.94423 12.52499 106.04421 12.47501 106.04421 12.42502 106.04421 12.22501 106.04421 11.97501 106.04421 10.77499 105.24422 10.67502 105.19423 10.17502 104.64418 9.97501 104.44423 9.82501 104.24422 8.97501 104.29421 8.875 104.29421 8.77499 104.29421 7.17502 104.44423 6.72501 104.49422 6.375 104.49422" fill="#f2e10a" fill-rule="evenodd" stroke="#fff" stroke-miterlimit="10" stroke-width=".25"/><polygon points="422.14517 22.64302 422.06961 22.66841 421.54892 22.75856 418.6373 23.2635 417.9324 23.38576 416.01517 23.71822 413.33743 24.18263 410.71292 24.63783 408.05325 25.0992 403.96964 25.80751 393.16855 27.68141 360.98489 33.26747 344.55692 34.96431 341.15897 35.31532 328.16391 36.65791 313.31924 38.19185 307.23776 38.82033 280.70474 41.56294 277.30716 41.91414 253.86758 53.20802 251.15152 54.54427 250.77505 54.72951 230.44766 64.50716 229.20834 66.02614 226.25174 69.64998 222.05746 74.79756 213.66879 85.10194 207.41458 92.79207 201.25388 100.37361 201.16049 100.4886 200.48239 102.18385 194.46658 117.22316 194.46622 117.22408 188.14523 120.94148 187.54514 121.29439 187.11508 121.54744 180.241 125.59187 171.03647 125.59187 170.858 125.35371 170.78189 125.25209 170.74423 125.20192 164.14493 116.39943 159.9537 110.81392 158.48483 108.85634 149.12985 110.07649 140.03195 111.2632 140.0372 111.23848 139.96909 111.24733 139.88254 107.81484 139.60013 102.77138 139.55972 102.20656 138.83347 100.43123 137.74411 98.81734 137.0582 98.21211 135.60568 97.20345 133.06381 95.50887 132.29721 94.37911 131.98074 93.92702 130.60257 91.95827 129.02902 89.73915 128.22208 89.4164 127.53616 88.28664 127.01169 86.87447 126.72922 86.14821 126.36612 85.01851 126.27811 84.89748 125.84073 84.2961 124.75223 82.79939 123.01724 81.14516 121.88754 79.77333 119.59421 77.71156 117.92166 76.37355 116.11716 75.18001 111.69351 67.29787 100.76334 56.36769 99.46213 51.42311 98.81155 49.3412 97.80441 47.13814 113.59299 39.03615 126.17038 32.50551 138.26407 26.94246 147.939 18.71877 147.80661 6.81575 196.36655 5.96297 196.68381 5.95869 197.36484 5.94948 202.76279 5.94911 202.77426 5.94911 203.40262 5.94093 203.40707 5.94911 296.02097 5.94289 310.86111 5.94191 332.44125 5.94045 333.95975 5.94032 358.66434 5.93868 421.32913 5.93446 421.32919 5.93648 421.33328 5.93446 421.74069 5.93446 421.94608 5.9344 422.15457 21.55983 422.15469 21.5685 422.15762 22.11073 422.14517 22.64302" fill="#f2e10a" fill-rule="evenodd" stroke="#fff" stroke-miterlimit="10" stroke-width=".25"/><polygon points="9.07501 63.94423 9.125 63.74422 9.17502 63.39418 9.07501 62.99422 8.82501 62.54421 8.57501 62.19423 8.27499 61.89418 8.02499 61.59419 7.82501 61.49422 7.42502 61.49422 7.17502 61.44423 7.125 61.24422 7.22501 61.04421 7.32501 60.79421 7.47501 60.54421 7.82501 60.29421 8.22501 60.19423 8.42502 60.04421 8.57501 59.94423 8.72501 59.94423 8.82501 59.94423 9.02499 60.09419 9.125 60.09419 9.22501 60.09419 9.375 60.09419 9.52499 60.19423 9.67502 60.24422 9.92502 60.29421 10.17502 60.29421 10.375 60.29421 10.77499 60.39418 10.82501 60.39418 10.97501 60.34419 11.07501 60.34419 11.32501 60.34419 11.47501 60.29421 11.625 60.14418 11.72501 59.99422 11.82501 59.84419 11.875 59.79421 11.97501 59.79421 12.07501 59.84419 12.125 59.84419 12.17502 59.79421 12.27499 59.64418 12.32501 59.59419 12.375 59.59419 12.47501 59.49422 12.52499 59.34419 12.57501 59.24422 12.72501 59.19423 12.82501 59.09419 12.82501 59.04421 12.82501 58.99422 12.82501 58.89418 12.82501 58.74422 12.875 58.69423 12.97501 58.54421 13.07501 58.44423 13.125 58.34419 13.125 58.19423 13.07501 58.04421 13.02499 57.89418 12.875 57.79421 12.72501 57.64418 12.625 57.39418 12.57501 57.19423 12.625 56.99422 12.67502 56.84419 12.72501 56.74422 12.82501 56.59419 12.92502 56.44423 13.02499 56.34419 13.125 56.19423 13.22501 55.99422 13.22501 55.79421 13.27499 55.64418 13.27499 55.44423 13.32501 55.29421 13.42502 55.14418 13.52499 55.04421 13.67502 54.94423 13.77499 54.84419 14.02499 54.74422 14.22501 54.64418 14.375 54.59419 14.42502 54.49422 14.52499 54.34419 14.57501 54.24422 14.625 54.04421 14.625 53.84419 14.57501 53.69423 14.625 53.54421 14.67502 53.44423 14.72501 53.39418 14.77499 53.29421 14.82501 53.24422 14.92502 53.04421 15.02499 52.79421 15.07501 52.64418 15.07501 52.49422 15.02499 52.29421 14.97501 52.19423 14.97501 52.04421 14.97501 51.99422 15.02499 51.89418 15.125 51.89418 15.22501 51.94423 15.27499 51.94423 15.32501 51.94423 15.375 51.84419 15.32501 51.74422 15.375 51.64418 15.42502 51.64418 15.52499 51.69423 15.57501 51.74422 15.625 51.79421 15.67502 51.79421 15.72501 51.69423 15.72501 51.59419 15.72501 51.54421 15.82501 51.54421 15.92502 51.44423 15.92502 51.34419 15.92502 51.19423 15.92502 51.04421 16.02499 50.89418 16.07501 50.79421 16.125 50.69423 16.22501 50.64418 16.32501 50.59419 16.42502 50.59419 16.52499 50.64418 16.67502 50.79421 16.875 50.89418 16.92502 50.89418 17.07501 50.74422 17.17502 50.69423 17.27499 50.69423 17.375 50.74422 17.375 50.84419 17.27499 51.04421 17.27499 51.14418 17.27499 51.24422 17.27499 51.39418 17.17502 51.44423 17.02499 51.64418 16.92502 51.84419 16.875 52.04421 16.875 52.19423 16.97501 52.34419 17.17502 52.54421 17.07501 52.69423 17.07501 52.79421 17.07501 52.89418 17.02499 52.94423 16.97501 53.04421 17.02499 53.14418 17.02499 53.19423 17.02499 53.34419 16.97501 53.54421 16.97501 53.69423 16.97501 53.79421 17.02499 53.89418 17.07501 53.94423 17.22501 53.99422 17.32501 54.04421 17.42502 54.09419 17.52499 54.14418 17.625 54.34419 17.72501 54.39418 17.82501 54.49422 17.92502 54.49422 18.02499 54.54421 18.17502 54.54421 18.625 54.54421 18.72501 54.59419 18.92502 54.59419 19.125 54.64418 19.22501 54.69423 19.375 54.74422 19.42502 54.74422 19.52499 54.69423 19.57501 54.69423 19.875 54.69423 20.125 54.69423 20.17502 54.69423 20.32501 54.74422 20.375 54.79421 20.57501 54.94423 20.67502 54.94423 20.77499 54.99422 20.92502 55.04421 21.125 55.04421 21.27499 55.04421 21.375 55.09419 21.52499 55.14418 21.77499 55.34419 21.97501 55.49422 22.125 55.59419 22.22501 55.64418 22.47501 55.74422 22.57501 55.79421 22.67502 55.89418 22.77499 55.94423 22.875 55.99422 23.02499 56.04421 23.42502 56.24422 23.47501 56.29421 23.52499 56.44423 23.52499 56.49422 23.42502 56.59419 23.375 56.64418 23.32501 56.74422 23.27499 56.84419 23.27499 56.94423 23.27499 57.04421 23.27499 57.19423 23.27499 57.34419 23.27499 57.49422 23.32501 57.59419 23.375 57.64418 23.42502 57.74422 23.52499 57.84419 23.57501 57.94423 23.625 58.09419 23.625 58.24422 23.67502 58.34419 23.67502 58.49422 23.67502 58.64418 23.67502 58.79421 23.67502 58.94423 23.57501 59.29421 23.47501 59.49422 23.42502 59.59419 23.42502 59.74422 23.375 59.84419 23.42502 60.04421 23.52499 60.39418 23.52499 60.54421 23.67502 60.79421 23.77499 60.99422 23.82501 61.09419 23.92502 61.14418 24.02499 61.24422 24.125 61.29421 24.22501 61.34419 25.125 61.34419 25.32501 61.39418 25.42502 61.39418 25.57501 61.39418 25.67502 61.39418 25.875 61.34419 26.02499 61.29421 26.17502 61.29421 26.42502 61.29421 27.125 61.24422 27.42502 61.24422 27.52499 61.19423 27.625 61.19423 27.77499 61.19423 27.92502 61.24422 28.17502 61.24422 28.57501 61.34419 28.77499 61.44423 29.02499 61.49422 29.17502 61.54421 29.47501 61.59419 29.625 61.64418 29.82501 61.64418 29.92502 61.69423 30.27499 61.79421 30.67502 61.89418 30.92502 61.99422 31.22501 62.09419 31.375 62.19423 31.47501 62.24422 31.72501 62.34419 31.82501 62.39418 31.97501 62.44423 32.17502 62.54421 32.27499 62.59419 32.32501 62.64418 32.42502 62.69423 32.52499 62.74422 32.67502 62.84419 32.77499 62.94423 32.82501 63.04421 32.82501 63.14418 32.875 63.29421 32.92502 63.39418 32.92502 63.49422 32.97501 63.59419 33.02499 63.69423 33.07501 63.79421 33.125 63.79421 33.17502 63.79421 33.32501 63.69423 33.77499 63.29421 33.82501 63.19423 33.875 63.09419 33.875 62.94423 33.875 62.79421 33.875 62.69423 33.77499 62.54421 33.77499 62.49422 33.72501 62.44423 33.72501 62.34419 33.72501 62.29421 33.625 62.19423 33.57501 62.14418 33.47501 62.09419 33.42502 62.04421 33.375 61.94423 33.32501 61.84419 33.32501 61.49422 33.375 61.39418 33.42502 61.29421 33.42502 61.14418 33.52499 61.04421 33.57501 60.99422 33.625 60.89418 33.72501 60.84419 33.82501 60.79421 33.97501 60.79421 34.125 60.74422 34.27499 60.74422 34.375 60.69423 34.47501 60.69423 34.57501 60.64418 34.77499 60.64418 34.875 60.64418 35.02499 60.59419 35.17502 60.49422 35.375 60.39418 35.625 60.24422 35.82501 60.09419 36.02499 59.94423 36.22501 59.74422 36.32501 59.69423 36.42502 59.59419 36.625 59.49422 37.02499 59.14418 37.42502 58.64418 37.625 58.44423 37.67502 58.39418 37.77499 58.29421 38.125 57.89418 38.22501 57.74422 38.375 57.64418 38.52499 57.54421 38.82501 57.24422 38.97501 57.04421 39.125 56.89418 39.47501 56.49422 39.67502 56.29421 39.92502 55.99422 39.97501 55.84419 40.02499 55.79421 40.125 55.69423 40.17502 55.49422 40.17502 55.44423 40.27499 55.34419 40.27499 55.24422 40.32501 55.09419 40.32501 54.84419 40.375 54.69423 40.375 54.59419 40.42502 54.44423 40.42502 54.34419 40.42502 54.29421 40.47501 54.14418 40.52499 53.94423 40.57501 53.69423 40.57501 53.39418 40.625 53.19423 40.67502 52.84419 40.77499 52.64418 40.82501 52.54421 40.82501 52.39418 40.92502 52.24422 40.92502 52.14418 40.97501 51.99422 41.02499 51.84419 41.07501 51.69423 41.07501 51.54421 41.125 51.44423 41.125 51.34419 41.17502 51.19423 41.27499 51.04421 41.27499 50.94423 41.32501 50.79421 41.375 50.64418 41.375 50.54421 41.42502 50.39418 41.42502 49.94423 41.47501 49.79421 41.47501 49.69423 41.52499 49.54421 41.57501 49.44423 41.625 49.29421 41.67502 49.14418 41.77499 48.99422 41.875 48.79421 42.02499 48.64418 42.125 48.54421 42.22501 48.44423 42.42502 48.39418 42.57501 48.29421 42.625 48.24422 42.77499 48.19423 42.92502 48.14418 43.17499 48.09419 43.47501 48.09419 43.82501 48.09419 44.02499 48.09419 44.22501 48.09419 44.32501 48.09419 44.42499 48.09419 44.625 48.09419 44.82501 48.09419 44.97501 48.09419 45.47501 48.14418 45.52499 48.14418 45.57501 48.19423 45.57501 48.29421 45.625 48.34419 45.625 48.44423 45.625 48.49422 45.67499 48.59419 45.67499 48.64418 45.72501 48.89418 45.72501 48.94423 45.72501 49.09419 45.77499 49.14418 45.77499 49.24422 45.77499 49.39418 45.82501 49.49422 45.875 49.54421 45.97501 49.54421 46.02499 49.54421 46.125 49.59419 46.22501 49.59419 46.32501 49.64418 46.42499 49.69423 46.52499 49.69423 46.67499 49.79421 46.82501 49.89418 46.97501 49.99422 47.02499 50.09419 47.125 50.09419 47.22501 50.04421 47.27499 50.04421 47.375 49.94423 47.375 49.79421 47.375 49.44423 47.375 49.34419 47.42499 49.24422 47.47501 49.09419 47.67499 48.89418 47.72501 48.79421 47.77499 48.69423 47.875 48.64418 47.92499 48.44423 47.97501 48.39418 48.07501 48.19423 48.22501 48.04421 48.47501 47.84419 48.67499 47.64418 48.92499 47.44423 49.125 47.29421 49.17499 47.24422 49.27499 47.19423 49.32501 47.09419 49.375 47.04421 49.47501 46.94423 49.52499 46.84419 49.52499 46.74422 49.57501 46.64418 49.625 46.49422 49.67499 46.19423 49.67499 45.94423 49.72501 45.74422 49.72501 45.54421 49.77499 44.94423 49.82501 44.84419 49.875 44.69423 49.92499 44.54421 49.97501 44.39418 50.02499 44.29421 50.07501 44.19423 50.125 44.04421 50.17499 43.99422 50.22501 43.94423 50.32501 43.89418 50.42499 43.84419 50.52499 43.79421 50.67499 43.79421 50.77499 43.74422 50.82501 43.74422 50.92499 43.64418 51.07501 43.49422 51.17499 43.39418 51.27499 43.39418 51.42499 43.39418 51.67499 43.39418 51.77499 43.39418 51.875 43.44423 51.92499 43.49422 52.02499 43.49422 52.125 43.49422 52.27499 43.49422 52.375 43.44423 52.47501 43.44423 52.57501 43.44423 52.625 43.44423 52.67499 43.49422 52.77499 43.54421 52.82501 43.54421 52.92499 43.49422 53.02499 43.49422 53.125 43.44423 53.22501 43.39418 53.32501 43.29421 53.375 43.19423 53.47501 43.14418 53.47501 42.99422 53.52499 42.94423 53.52499 42.84419 53.57501 42.79421 53.67499 42.69423 53.77499 42.59419 53.97501 42.49422 54.17499 42.34419 54.375 42.19423 54.67499 41.94423 54.77499 41.89418 54.875 41.74422 54.97501 41.69423 55.07501 41.59419 55.17502 41.59419 55.32498 41.49422 55.42502 41.49422 55.57498 41.49422 55.72501 41.49422 55.82498 41.49422 55.97501 41.54421 56.07498 41.59419 56.17502 41.64418 56.32498 41.74422 56.82498 42.14418 56.87497 42.19423 56.97501 42.29421 57.22501 42.54421 57.27499 42.59419 57.32498 42.64418 57.42502 42.74422 57.57498 42.84419 57.72501 42.89418 57.92502 42.99422 58.02499 43.04421 58.12497 43.09419 58.27499 43.19423 58.47501 43.34419 58.57498 43.44423 58.67502 43.54421 58.72501 43.59419 58.87497 43.64418 59.02499 43.74422 59.12497 43.79421 59.22501 43.84419 59.37497 43.89418 59.47501 43.94423 59.57498 43.99422 59.67502 44.09419 59.77499 44.14418 59.82498 44.19423 59.87497 44.19423 59.97501 44.29421 60.02499 44.34419 60.07498 44.34419 60.17502 44.39418 60.47501 44.64418 60.52499 44.69423 60.62497 44.79421 60.67502 44.89418 60.72501 44.94423 60.82498 45.04421 60.87497 45.09419 60.92502 45.19423 61.12497 45.34419 61.42502 45.54421 61.67502 45.79421 61.82498 45.94423 61.92502 45.99422 62.02499 46.04421 62.22501 46.19423 62.32498 46.24422 62.37497 46.29421 62.62497 46.44423 62.87497 46.59419 63.02499 46.69423 63.12497 46.74422 63.17502 46.84419 63.27499 46.94423 63.42502 47.04421 63.57498 47.09419 63.67502 47.14418 63.77499 47.19423 63.82498 47.24422 63.82498 47.29421 63.82498 47.39418 63.67502 47.69423 63.57498 47.99422 63.52499 48.14418 63.47501 48.24422 63.37497 48.39418 63.02499 49.09419 63.02499 49.19423 62.92502 49.29421 62.82498 49.54421 62.82498 49.69423 62.77499 49.79421 62.72501 49.94423 62.67502 50.04421 62.67502 50.14418 62.72501 50.24422 62.77499 50.34419 62.92502 50.44423 63.17502 50.64418 63.32498 50.74422 63.72501 50.94423 64.02499 51.09419 64.27499 51.24422 64.62497 51.34419 64.77499 51.39418 64.92502 51.44423 65.07498 51.49422 65.17502 51.54421 65.37497 51.64418 65.72501 51.84419 65.92502 51.94423 66.12497 52.04421 66.27499 52.09419 66.42502 52.14418 66.52499 52.19423 66.67502 52.29421 66.77499 52.29421 66.87497 52.34419 67.02499 52.39418 67.12497 52.49422 67.27499 52.59419 67.37497 52.69423 67.42502 52.79421 67.62497 52.94423 67.72501 52.99422 67.82498 53.09419 68.02499 53.19423 68.12497 53.34419 68.32498 53.44423 68.47501 53.54421 68.57498 53.59419 68.72501 53.69423 68.82498 53.79421 69.02499 53.84419 69.12497 53.89418 69.22501 53.94423 69.32498 53.99422 69.42502 54.04421 69.52499 54.09419 69.67502 54.19423 69.77499 54.24422 69.92502 54.29421 70.02499 54.34419 70.12497 54.34419 70.32498 54.39418 70.42502 54.49422 70.62497 54.49422 70.77499 54.49422 70.92502 54.49422 71.02499 54.49422 71.22501 54.44423 71.37497 54.44423 71.52499 54.44423 71.62497 54.39418 71.77499 54.39418 72.02499 54.39418 72.22501 54.39418 72.37497 54.34419 72.52499 54.29421 72.67502 54.24422 72.92502 54.24422 73.12497 54.19423 73.27499 54.14418 73.57498 54.14418 74.12497 54.04421 74.42502 53.99422 74.57498 53.99422 74.67502 53.94423 74.82498 53.89418 75.37497 53.74422 75.72501 53.64418 75.87497 53.64418 76.02499 53.59419 76.62497 53.49422 76.82498 53.49422 77.07498 53.44423 77.37497 53.39418 77.62497 53.34419 77.97501 53.29421 78.47501 53.19423 79.12497 53.09419 79.22501 53.04421 79.32498 52.99422 79.42502 52.94423 79.52499 52.89418 79.87497 52.44423 80.07498 52.19423 80.22501 51.99422 80.62497 51.44423 80.77499 51.34419 80.87497 51.24422 80.97501 51.14418 81.22501 50.84419 81.32498 50.64418 81.47501 50.44423 81.57498 50.34419 81.67502 50.19423 81.82498 50.09419 81.97501 49.99422 82.12503 49.89418 82.22501 49.79421 82.32498 49.79421 82.42502 49.79421 82.62503 49.79421 82.72501 49.79421 82.77499 49.84419 82.87503 49.89418 83.17502 50.14418 83.42502 50.34419 83.72501 50.64418 84.07498 50.84419 84.27499 50.99422 84.32498 51.09419 84.42502 51.14418 84.52499 51.19423 84.62503 51.24422 84.72501 51.24422 84.87503 51.29421 84.97501 51.29421 85.07498 51.24422 85.97501 50.89418 86.12503 50.84419 86.27499 50.79421 86.52499 50.79421 86.62503 50.74422 86.82498 50.74422 87.37503 50.69423 87.47501 50.69423 88.12503 50.64418 88.57498 50.64418 88.77499 50.59419 88.97501 50.54421 89.07498 50.54421 89.17502 50.54421 89.27499 50.64418 89.37503 50.69423 89.47501 50.79421 89.42502 50.14418 95.22501 48.44423 97.27499 47.39418 93.17502 54.74422 93.22501 54.74422 93.22501 54.79421 93.27499 54.79421 93.27499 54.89418 93.22501 54.94423 93.12503 55.04421 93.07498 55.09419 93.02499 55.14418 92.97501 55.24422 92.97501 55.54421 92.92502 55.64418 92.87503 55.69423 92.82498 55.74422 92.72501 55.79421 92.62503 55.89418 92.52499 55.94423 92.37503 55.99422 92.22501 56.04421 92.12503 56.14418 92.02499 56.19423 91.92502 56.24422 91.82498 56.34419 91.72501 56.44423 91.67502 56.54421 91.62503 56.64418 91.52499 56.74422 91.47501 56.84419 91.47501 56.99422 91.42502 57.09419 91.37503 57.19423 91.37503 57.34419 91.32498 57.44423 91.32498 57.59419 91.32498 57.69423 91.27499 57.79421 91.22501 57.89418 91.17502 58.14418 91.12503 58.29421 91.12503 58.39418 91.12503 58.69423 91.07498 59.09419 91.07498 59.19423 91.12503 59.34419 91.12503 59.49422 91.12503 59.64418 91.07498 59.84419 91.07498 59.94423 91.07498 60.04421 91.02499 60.14418 91.02499 60.29421 90.92502 60.39418 90.72501 60.64418 90.72501 60.69423 90.62503 60.84419 90.62503 60.94423 90.57498 61.04421 90.57498 61.14418 90.52499 61.24422 90.47501 61.34419 90.32498 61.84419 90.27499 61.99422 90.22501 62.14418 90.12503 62.24422 89.97501 62.49422 89.77499 62.89418 89.47501 63.44423 89.42502 63.54421 89.37503 63.64418 89.27499 63.74422 89.22501 63.84419 88.87503 64.34419 88.77499 64.44423 88.67502 64.59419 88.57498 64.64418 88.47501 64.79421 88.42502 64.84419 88.37503 64.99422 88.32498 65.14418 88.32498 65.24422 88.32498 65.34419 88.32498 65.49422 88.37503 65.64418 88.37503 65.79421 88.42502 65.89418 88.42502 65.99422 88.42502 66.09419 88.37503 66.24422 88.32498 66.34419 88.27499 66.44423 88.27499 66.49422 88.22501 66.59419 88.07498 66.79421 87.97501 66.89418 87.92502 66.99422 87.87503 67.09419 87.82498 67.14418 87.77499 67.24422 87.77499 67.39418 87.77499 67.99422 77.57498 70.04421 76.02499 70.29421 72.77499 70.79421 68.72501 73.04421 63.12497 75.14418 61.57498 76.89418 61.47501 76.89418 61.37497 76.89418 61.32498 76.89418 61.27499 76.84419 61.22501 76.79421 61.17502 76.74422 61.07498 76.74422 61.02499 76.69423 60.92502 76.69423 60.82498 76.64418 60.77499 76.64418 60.67502 76.64418 60.57498 76.59419 60.52499 76.59419 60.37497 76.54421 60.27499 76.54421 60.17502 76.54421 60.02499 76.49422 59.92502 76.44423 59.82498 76.44423 59.67502 76.34419 59.52499 76.29421 59.37497 76.24422 59.22501 76.19423 59.07498 76.09419 58.97501 76.04421 58.82498 75.99422 58.77499 75.94423 58.72501 75.94423 58.62497 75.84419 58.57498 75.79421 58.37497 75.64418 57.97501 75.34419 57.92502 75.29421 57.82498 75.24422 57.67502 75.19423 57.57498 75.19423 57.42502 75.09419 57.32498 75.09419 57.17502 75.04421 56.97501 74.94423 56.72501 74.84419 56.57498 74.79421 56.47501 74.79421 56.37497 74.74422 56.22501 74.74422 56.12497 74.69423 55.97501 74.69423 55.82498 74.69423 55.57498 74.64418 55.42502 74.64418 55.27499 74.64418 55.125 74.69423 55.02499 74.69423 54.92499 74.74422 54.77499 74.79421 54.72501 74.79421 54.57501 74.84419 54.32501 74.94423 54.02499 75.04421 53.875 75.09419 53.77499 75.09419 53.625 75.14418 53.52499 75.14418 53.32501 75.14418 52.97501 75.14418 52.92499 75.09419 52.82501 75.09419 52.72501 75.04421 52.625 74.99422 52.52499 74.94423 52.42499 74.94423 52.27499 74.84419 52.07501 74.74422 51.92499 74.69423 51.875 74.64418 51.77499 74.59419 51.67499 74.54421 51.57501 74.54421 51.42499 74.49422 51.22501 74.44423 51.07501 74.34419 50.97501 74.34419 50.92499 74.34419 50.77499 74.29421 50.625 74.24422 50.32501 74.14418 50.22501 74.09419 50.07501 74.04421 49.97501 74.04421 49.875 73.99422 49.77499 73.99422 49.67499 73.99422 49.57501 73.99422 49.47501 73.99422 49.375 73.99422 49.32501 74.04421 49.32501 74.14418 49.27499 74.19423 49.27499 74.34419 49.27499 74.44423 49.22501 74.59419 49.22501 74.69423 49.22501 74.79421 49.17499 74.89418 49.125 75.04421 49.07501 75.14418 49.02499 75.24422 48.97501 75.39418 48.97501 75.54421 48.92499 75.64418 48.92499 75.74422 48.92499 75.89418 48.92499 76.04421 48.92499 76.14418 48.97501 76.24422 48.97501 76.34419 48.97501 76.44423 49.02499 76.49422 49.07501 76.59419 49.125 76.74422 49.17499 76.84419 49.17499 76.94423 49.17499 77.04421 49.125 77.09419 49.17499 77.34419 49.17499 77.84419 49.17499 78.04421 49.17499 78.14418 49.125 78.29421 49.07501 78.44423 49.02499 78.59419 49.02499 78.69423 48.97501 78.84419 48.97501 78.94423 48.875 79.04421 48.82501 79.19423 48.82501 79.29421 48.77499 79.39418 48.72501 79.54421 48.67499 79.64418 48.57501 79.94423 48.57501 80.04421 48.52499 80.14418 48.52499 80.29421 48.47501 80.39418 48.47501 80.44423 48.42499 80.54421 48.375 80.69423 48.32501 81.09419 48.27499 81.29421 47.82501 81.14418 47.22501 80.54421 45.97501 79.59419 44.72501 78.99422 42.77499 78.54421 41.67502 78.49422 40.77499 77.99422 40.72501 77.99422 40.72501 77.94423 40.57501 77.64418 40.52499 77.59419 40.47501 77.54421 40.27499 77.29421 40.17502 77.24422 40.125 77.14418 40.07501 77.09419 39.97501 77.09419 39.875 77.09419 39.82501 77.09419 39.72501 77.14418 39.67502 77.19423 39.57501 77.29421 39.47501 77.39418 39.375 77.49422 39.27499 77.59419 39.22501 77.69423 39.125 77.79421 39.07501 77.94423 39.02499 78.04421 38.97501 78.14418 38.92502 78.24422 38.875 78.34419 38.875 78.44423 38.875 78.54421 38.82501 78.59419 38.77499 78.69423 38.72501 78.79421 38.625 78.84419 38.57501 78.89418 38.52499 78.94423 38.42502 78.99422 38.32501 79.04421 38.27499 79.09419 38.125 79.14418 38.02499 79.19423 37.97501 79.24422 37.82501 79.29421 37.72501 79.29421 37.57501 79.39418 37.42502 79.44423 36.97501 79.69423 36.32501 79.99422 36.27499 79.99422 36.22501 79.99422 36.17502 79.99422 36.07501 79.99422 35.97501 79.99422 35.92502 79.94423 35.875 79.94423 35.77499 79.94423 35.67502 79.89418 35.57501 79.89418 35.52499 79.84419 35.42502 79.84419 35.32501 79.84419 35.125 79.84419 33.92502 79.84419 33.77499 79.84419 33.67502 79.84419 33.57501 79.84419 33.52499 79.89418 33.42502 79.89418 33.375 79.89418 33.32501 79.89418 33.27499 79.89418 33.22501 79.89418 33.125 79.89418 33.02499 79.89418 32.875 79.89418 32.72501 79.94423 32.625 79.94423 32.52499 79.94423 32.375 79.94423 32.27499 79.94423 32.17502 79.94423 32.02499 79.94423 31.875 79.94423 31.72501 79.94423 31.57501 79.94423 31.47501 79.89418 31.375 79.89418 31.32501 79.89418 31.27499 79.84419 31.22501 79.79421 31.17502 79.74422 31.07501 79.69423 31.02499 79.64418 30.97501 79.59419 30.875 79.59419 30.82501 79.54421 30.72501 79.54421 30.52499 79.44423 30.375 79.34419 30.22501 79.29421 30.07501 79.19423 29.92502 79.14418 29.82501 79.04421 29.67502 78.94423 29.52499 78.84419 29.32501 78.79421 29.17502 78.69423 29.02499 78.64418 28.82501 78.59419 28.67502 78.54421 28.47501 78.54421 28.27499 78.54421 28.17502 78.54421 27.97501 78.59419 27.77499 78.59419 27.625 78.64418 27.47501 78.64418 27.32501 78.64418 27.22501 78.64418 27.07501 78.69423 26.92502 78.69423 26.77499 78.69423 26.625 78.69423 26.47501 78.69423 26.32501 78.69423 26.17502 78.64418 25.97501 78.59419 25.72501 78.54421 25.625 78.49422 25.52499 78.44423 25.42502 78.39418 25.32501 78.29421 25.27499 78.24422 25.22501 78.19423 25.07501 78.14418 24.97501 78.09419 24.875 78.09419 24.67502 78.09419 24.42502 78.09419 24.27499 78.09419 24.125 78.14418 24.02499 78.14418 23.92502 78.19423 23.82501 78.19423 23.72501 78.24422 23.625 78.29421 23.52499 78.29421 22.67502 78.79421 22.52499 78.84419 22.47501 78.84419 22.375 78.84419 22.27499 78.84419 22.22501 78.84419 22.125 78.84419 22.07501 78.79421 22.02499 78.74422 21.97501 78.74422 21.57501 78.44423 21.52499 78.39418 21.47501 78.39418 21.375 78.34419 21.27499 78.29421 21.22501 78.24422 21.17502 78.19423 20.97501 78.09419 20.92502 78.09419 20.875 78.04421 20.82501 77.94423 20.77499 77.89418 20.72501 77.84419 20.52499 77.74422 20.07501 77.59419 20.02499 77.54421 19.875 77.54421 19.27499 77.54421 19.17502 77.59419 19.07501 77.59419 18.97501 77.64418 18.625 77.79421 18.42502 77.84419 18.22501 77.89418 18.125 77.89418 18.02499 77.94423 17.92502 77.89418 17.77499 77.89418 17.72501 77.89418 17.67502 77.84419 17.52499 77.84419 17.375 77.84419 17.22501 77.79421 17.07501 77.74422 16.92502 77.69423 16.72501 77.64418 16.57501 77.59419 16.47501 77.54421 16.27499 77.44423 16.07501 77.34419 15.92502 77.29421 15.77499 77.24422 15.72501 77.14418 15.57501 77.09419 15.375 76.99422 15.17502 76.89418 15.02499 76.79421 14.92502 76.74422 14.72501 76.69423 14.625 76.64418 14.47501 76.59419 14.52499 76.49422 14.625 76.34419 14.67502 76.24422 14.82501 76.09419 14.92502 75.99422 15.07501 75.89418 15.22501 75.79421 15.32501 75.69423 15.42502 75.59419 15.52499 75.49422 15.67502 75.34419 15.72501 75.29421 15.77499 75.19423 15.82501 75.14418 15.875 75.04421 15.92502 74.94423 16.07501 74.84419 16.22501 74.69423 16.27499 74.59419 16.32501 74.54421 16.375 74.44423 16.42502 74.39418 16.47501 74.34419 16.52499 74.29421 16.57501 74.19423 16.625 74.14418 16.625 74.04421 16.625 73.54421 16.625 73.24422 16.57501 72.84419 16.52499 72.74422 16.47501 72.64418 16.375 72.49422 16.27499 72.39418 16.125 72.29421 16.02499 72.14418 15.875 71.99422 15.72501 71.89418 15.57501 71.74422 15.32501 71.59419 15.17502 71.44423 14.97501 71.34419 14.72501 71.19423 14.52499 70.99422 14.27499 70.79421 14.07501 70.59419 13.92502 70.49422 13.77499 70.39418 13.22501 70.09419 12.625 69.64418 12.42502 69.54421 12.17502 69.34419 11.97501 69.19423 11.77499 69.09419 11.625 68.99422 11.52499 68.94423 11.375 68.89418 10.97501 68.69423 10.875 68.64418 10.27499 68.49422 9.97501 68.39418 9.47501 68.14418 8.875 67.84419 8.42502 67.59419 7.97501 67.19423 7.67502 66.89418 7.42502 66.54421 7.32501 66.19423 7.375 65.94423 7.72501 65.54421 8.17502 64.99422 8.32501 64.84419 8.82501 64.29421 9.07501 63.94423" fill="#f2e10a" fill-rule="evenodd" stroke="#fff" stroke-miterlimit="10" stroke-width=".25"/><polygon points="17.18732 52.53218 17.36102 52.69386 17.52017 52.77718 17.67081 52.76064 17.77072 52.67726 17.92133 52.51009 18.00516 52.30928 18.13068 52.08382 18.28934 51.93269 18.54037 51.79067 18.79089 51.66512 19.03391 51.5818 19.29297 51.53963 19.47723 51.4894 19.62735 51.45625 19.66953 51.35585 19.84424 51.1219 19.94516 50.94618 20.02048 50.86232 20.17963 50.82063 20.31317 50.787 20.38849 50.72878 20.48087 50.63692 20.48087 50.53645 20.40506 50.42751 20.30463 50.30202 20.25443 50.20161 20.28806 50.11824 20.37192 50.05147 20.37192 49.95107 20.3468 49.8838 20.26297 49.84212 20.12088 49.81752 19.89496 49.85066 19.7865 49.85066 19.70267 49.78389 19.57715 49.69148 19.50183 49.64131 19.38486 49.61671 19.18454 49.63326 18.83307 49.63326 18.63226 49.60817 18.40631 49.56648 18.02173 49.49117 17.71246 49.44899 17.46094 49.39076 17.12704 49.37422 16.76758 49.34053 16.56674 49.29036 16.28259 49.23158 16.1405 49.16481 16.0903 49.04787 16.0903 48.95595 16.17365 48.82192 16.28259 48.71297 16.42465 48.64619 16.56674 48.47096 16.90164 48.14461 17.28622 47.80171 17.63715 47.54268 17.67883 47.45882 17.71246 47.35036 17.70392 47.19972 17.68738 47.06569 17.67081 46.97383 17.68738 46.87337 17.74609 46.78151 17.87967 46.59779 18.05539 46.27998 18.18091 46.1208 18.26425 46.01234 18.35663 45.99532 18.46506 45.96217 18.5238 45.88686 18.50623 45.76985 18.43997 45.68599 18.28131 45.5439 18.18942 45.45204 18.16434 45.36818 18.14725 45.30995 18.18091 45.26778 18.28131 45.26778 18.43997 45.36018 18.5986 45.36818 18.71609 45.36818 18.86621 45.35164 19.05048 45.29292 19.24277 45.25124 19.4436 45.24269 19.64441 45.23463 19.80307 45.16737 19.92004 45.08406 19.99536 45.0002 20.07919 44.93343 20.17108 44.90834 20.26297 44.88319 20.38849 44.79988 20.50546 44.69948 20.55566 44.56538 20.53058 44.45692 20.46378 44.34804 20.37994 44.1974 20.33829 44.07185 20.32974 43.92976 20.32974 43.75404 20.31317 43.56178 20.25443 43.46187 20.13745 43.44478 20.05411 43.46986 19.98682 43.58687 19.90347 43.65413 19.80307 43.69582 19.70267 43.69582 19.56058 43.60396 19.38486 43.46986 19.25131 43.34438 19.11725 43.12697 19.08463 42.92665 19.06705 42.72633 19.05902 42.55867 19.12579 42.40804 19.18454 42.31612 19.28494 42.22377 19.41849 42.13191 19.54401 42.06514 19.58566 41.93105 19.62735 41.83113 19.77795 41.75581 19.87839 41.63838 19.96121 41.46315 19.97879 41.34566 19.87839 41.1368 19.7363 40.94447 19.65247 40.73561 19.65247 40.59303 19.77795 40.37569 19.87839 40.20046 19.99536 40.10805 20.12991 40.06636 20.2966 39.98305 20.48087 39.8575 20.63098 39.68984 20.83984 39.45589 20.95682 39.40566 21.11597 39.28017 21.15765 39.12148 21.14911 38.92067 21.18274 38.82027 21.2666 38.74495 21.38358 38.68672 21.49252 38.67818 21.56784 38.70326 21.65118 38.75349 21.74304 38.80367 21.81033 38.75349 21.87662 38.63649 21.95242 38.53609 22.04428 38.46077 22.17786 38.3694 22.30338 38.27699 22.40378 38.16005 22.53781 37.85024 22.67139 37.69161 22.75522 37.51588 22.87219 37.44008 23.01428 37.41548 23.11469 37.42403 23.19803 37.3738 23.24826 37.24831 23.29044 37.05599 23.32355 36.95558 23.40741 36.86372 23.62479 36.69649 23.66647 36.54591 23.7001 36.42891 23.80054 36.28633 23.96719 36.1111 24.16 35.91884 24.36084 35.6678 24.80365 35.27467 24.87094 35.27467 24.97134 35.28322 25.07977 35.31636 25.19678 35.31636 25.29718 35.2917 25.38104 35.24959 25.5231 35.15767 25.66519 35.07387 25.80728 35.01558 25.8826 34.99855 25.95792 34.99855 26.06635 35.04073 26.16675 35.11549 26.28424 35.18282 26.36758 35.1913 26.40976 35.13258 26.40976 35.06581 26.43488 34.96541 26.4675 34.88155 26.56842 34.78969 26.70145 34.75606 26.87769 34.76454 27.01978 34.73946 27.09509 34.68123 27.17892 34.61397 27.18695 34.53059 27.17038 34.40511 27.12018 34.25447 27.01978 34.12843 26.76923 33.92812 26.66882 33.86989 26.45947 33.71974 26.13364 33.51845 25.92426 33.36781 25.74854 33.19258 25.59842 33.07564 25.53867 33.0284 25.495 32.92952 25.33133 32.69051 25.14203 32.52638 24.82724 32.36269 24.53705 32.22414 24.13388 32.12318 23.83115 32.11067 23.68002 32.06044 23.62479 31.99666 23.8924 31.80391 24.0596 31.69545 24.33572 31.59505 24.5697 31.49458 24.72833 31.38619 24.85385 31.26064 24.89655 31.13515 24.9126 31.0096 24.9628 30.93379 25.07126 30.83437 25.16364 30.69984 25.29718 30.62502 25.3725 30.49953 25.38104 30.38252 25.38907 30.24043 25.40613 30.0818 25.45633 29.9814 25.58987 29.90608 25.78217 29.83931 25.92426 29.81416 26.04977 29.7715 26.15872 29.73891 26.28424 29.71376 26.52673 29.65456 26.71902 29.59682 26.84406 29.47127 26.9028 29.34578 26.94446 29.21169 27.02832 29.06966 27.09509 28.92757 27.16187 28.76888 27.17892 28.6263 27.17892 28.47621 27.1955 28.29195 27.22913 28.13326 27.39581 27.79842 27.45508 27.73164 27.55496 27.6985 27.64737 27.6985 27.73923 27.76527 27.83966 27.84859 28.00684 28.04945 28.09872 28.10817 28.24078 28.1664 28.30759 28.18349 28.46674 28.20058 28.66754 28.20058 28.8508 28.22517 29.07724 28.21663 29.26953 28.22517 29.47839 28.24171 29.72943 28.21663 29.87152 28.18349 30.09744 28.10817 30.40671 27.94051 30.78326 27.6985 31.22659 27.41383 31.30994 27.31337 31.38522 27.18788 31.47711 27.01265 31.55243 26.89571 31.6694 26.76161 31.80347 26.64467 31.94556 26.51912 32.13785 26.42726 32.36377 26.32686 32.6394 26.21791 32.76492 26.13454 32.91605 26.03413 33.06616 25.97542 33.83533 25.69124 34.06125 25.64101 34.22842 25.58229 34.37003 25.56569 34.57135 25.53206 34.81384 25.49892 34.93082 25.46529 35.05634 25.4402 35.17334 25.41512 35.29031 25.36488 35.86768 25.08925 36.03488 25.03053 36.12674 25.06416 36.14331 25.16457 36.12674 25.29005 36.16843 25.43214 36.26031 25.54915 36.3356 25.58229 36.42798 25.65761 36.52789 25.69124 36.76236 25.74995 36.99634 25.77504 37.21371 25.80019 37.55664 25.7831 38.02505 25.82527 38.40161 25.85036 38.5939 25.91713 38.81079 26.0005 38.9534 26.0005 39.0538 25.99196 39.20441 25.92519 39.32141 25.80019 39.37964 25.68269 39.37161 25.52406 39.37161 25.33174 39.32141 25.10579 39.20441 24.71272 39.14569 24.46217 39.12057 24.30299 39.11203 24.14436 39.12912 24.01033 39.17932 23.81801 39.23755 23.52528 39.24609 23.32448 39.24609 23.06545 39.25464 22.80635 39.24609 22.61354 39.26266 22.42128 39.31287 22.11202 39.32944 21.91969 39.32141 21.69325 39.30432 21.3423 39.27924 21.16713 39.22952 20.94118 39.20441 20.73232 39.16223 20.44814 39.11203 20.00533 39.0538 19.57808 39.04324 19.49825 39.0036 19.20204 38.96191 18.97609 38.88611 18.75014 38.83591 18.54982 38.80276 18.3741 38.82788 18.22347 38.88611 18.06484 38.99506 17.97298 39.19589 17.80525 39.41327 17.71339 39.60556 17.61299 39.78934 17.55476 40.01526 17.46236 40.21609 17.29518 40.63431 16.96077 40.7262 16.82674 40.7764 16.70973 40.80148 16.58424 40.81805 16.42561 40.85168 16.27498 40.90994 16.1078 40.93503 15.96571 40.96869 15.73976 40.99429 15.61427 41.16901 15.35518 41.42004 14.88673 41.55408 14.64424 41.56262 14.51875 41.54556 14.35158 41.52045 14.23457 41.52899 14.09248 41.54556 13.99208 41.55408 13.86653 41.56262 13.76613 41.59576 13.63258 41.61282 13.52364 41.64597 13.41518 41.75491 13.33992 41.85532 13.28114 42.01398 13.25606 42.16461 13.23097 42.24796 13.18929 42.32324 13.10542 42.36493 12.99696 42.38199 12.87148 42.39856 12.77107 42.42368 12.64552 42.47388 12.54512 42.55771 12.49489 42.6998 12.48689 42.84189 12.49489 42.98398 12.54512 43.13458 12.62044 43.29324 12.7881 43.52771 12.99696 43.60251 13.13905 43.62762 13.28969 43.62762 13.42323 43.62762 13.59895 43.6698 13.69081 43.7702 13.92531 43.85355 14.12563 44.00418 14.31038 44.08801 14.33498 44.15479 14.2928 44.2301 14.17586 44.30591 14.05885 44.36365 13.90022 44.45602 13.57387 44.50574 13.36501 44.51428 13.16414 44.50574 12.77107 44.48062 12.56972 44.54791 12.42012 44.64832 12.31117 44.75677 12.25295 44.85718 12.2278 44.88229 12.18562 44.86572 12.05208 44.84061 11.91805 44.7146 11.7845 44.45602 11.60878 44.30591 11.53346 44.18893 11.48323 43.78677 11.44161 43.57742 11.38283 43.33542 11.3246 43.13458 11.24074 42.96741 11.13228 42.89209 11.02333 42.89209 10.90639 43.00104 10.76479 43.12607 10.61366 43.14264 10.53835 43.06781 10.39626 42.96741 10.25417 42.84189 10.03682 42.80023 9.8445 42.77512 9.68538 42.80023 9.5262 42.83334 9.42629 42.89209 9.37605 43.6698 8.63149 43.81189 8.45577 43.84552 8.33882 43.87866 8.17165 43.95398 8.0215 44.09656 7.88747 44.24667 7.79555 44.29688 7.72829 44.28885 7.65346 44.24667 7.57015 44.19647 7.49434 44.20499 7.40248 44.24667 7.32716 44.31345 7.2433 44.43094 7.19307 44.51428 7.1263 44.51428 7.07613 44.49771 6.99275 44.42288 6.91744 44.33051 6.8838 44.23865 6.86726 44.00418 6.87581 43.8204 6.8838 43.66125 6.85872 43.44388 6.79195 43.24304 6.72517 42.91721 6.72517 42.67471 6.66646 42.3313 6.63277 41.99741 6.683 41.74637 6.77535 41.61282 6.86726 41.51242 6.91744 41.46222 6.90895 41.42004 6.84212 41.29453 6.77535 41.08566 6.71663 40.85168 6.69954 40.55899 6.71663 40.24921 6.70808 39.91486 6.74171 39.8566 6.69154 39.84805 6.60768 39.87317 6.51582 39.95651 6.36568 40.20755 6.01424 40.28287 5.88875 40.3165 5.71248 40.32452 5.5378 40.29892 5.3199 40.29138 5.11958 40.24921 4.8434 40.19098 4.70131 40.09058 4.54219 39.94797 4.43324 39.86462 4.33333 39.84805 4.27461 39.86462 4.14156 39.90631 4.02455 39.93994 3.86488 39.92337 3.74794 39.89023 3.63899 39.8064 3.48885 39.74765 3.32167 39.69745 3.17909 39.66431 3.037 39.67233 2.79451 39.69745 2.60219 39.69745 2.38478 39.73911 2.19252 39.78128 2.06697 39.90631 1.8752 40.00723 1.72408 40.11566 1.68239 40.21521 1.68147 48.17789 1.60658 48.19128 1.57497 75.08603 .13106 76.2247 9.17757 76.22128 9.22798 76.24637 9.35396 76.24704 9.35506 76.42679 10.7831 76.60617 12.20857 81.21335 10.39314 88.78128 7.41103 89.75125 7.39796 90.98642 7.38136 91.05673 7.81239 147.80661 6.81575 147.939 18.71877 138.26407 26.94246 126.17038 32.50551 113.59299 39.03615 97.80441 47.13814 97.26639 47.4142 95.21054 48.46919 89.42856 50.13405 89.49826 50.77797 89.48422 50.79512 89.47983 50.7845 89.3945 50.70717 89.29355 50.62184 89.17758 50.56709 89.07614 50.55153 88.96774 50.56709 88.79654 50.59071 88.57913 50.62184 88.10568 50.65248 87.49216 50.69161 87.36008 50.71474 86.80081 50.73879 86.62259 50.75386 86.50607 50.77699 86.29623 50.80812 86.14859 50.83925 85.9548 50.88594 85.07724 51.23482 84.9838 51.274 84.85226 51.274 84.74332 51.25844 84.64993 51.2198 84.54904 51.17311 84.44058 51.13393 84.33969 51.07216 84.25583 51.00087 84.05099 50.85628 83.74673 50.6208 83.42038 50.36275 83.19998 50.16493 82.88821 49.89888 82.78928 49.82301 82.72855 49.79244 82.60703 49.77736 82.44736 49.77736 82.31833 49.79244 82.24203 49.81551 82.12051 49.8838 81.95334 49.98268 81.80075 50.1042 81.69528 50.21065 81.58932 50.33968 81.48239 50.46919 81.3378 50.65144 81.20126 50.8412 80.98087 51.12239 80.86685 51.22884 80.76047 51.32021 80.63895 51.4648 80.21317 51.99648 80.07663 52.1938 79.89389 52.42976 79.50626 52.87056 79.42294 52.94637 79.3165 53.00716 79.21762 53.05281 79.10312 53.08296 78.45749 53.20497 77.96396 53.29585 77.62955 53.36409 77.39359 53.40981 77.08231 53.45546 76.82376 53.4861 76.62643 53.51674 76.04855 53.61513 75.88937 53.63771 75.7222 53.65328 75.36472 53.74416 74.8024 53.90334 74.67288 53.94954 74.55942 53.98769 74.43741 53.99519 74.11862 54.03285 73.5563 54.12422 73.29776 54.16237 73.14511 54.18501 72.91769 54.23824 72.65207 54.26881 72.53812 54.30647 72.37094 54.34462 72.21878 54.37477 72.00589 54.39034 71.77798 54.39034 71.62582 54.39784 71.50436 54.42848 71.37534 54.45107 71.23074 54.46614 71.04092 54.47365 70.9039 54.48927 70.75174 54.49678 70.60764 54.49678 70.43295 54.48927 70.3024 54.4059 70.14725 54.36726 70.01523 54.33614 69.90628 54.28188 69.79031 54.23518 69.66525 54.18849 69.53372 54.11116 69.41678 54.04091 69.31631 54.00221 69.20737 53.94801 69.11398 53.90132 69.00558 53.86269 68.84238 53.7773 68.70279 53.69948 68.56326 53.61415 68.45432 53.5519 68.30667 53.45851 68.14352 53.32698 68.00394 53.21803 67.84879 53.10909 67.7012 52.99257 67.60782 52.92281 67.42905 52.79073 67.36734 52.69789 67.25839 52.6125 67.11075 52.48799 67.01736 52.41017 66.88583 52.3484 66.79294 52.29372 66.68399 52.27058 66.52084 52.20833 66.4119 52.16164 66.27982 52.10744 66.12473 52.05324 65.94595 51.95985 65.70547 51.84334 65.36356 51.66512 65.15421 51.56471 65.05331 51.50948 64.93631 51.45528 64.76559 51.40102 64.60294 51.36189 64.29269 51.22231 64.03561 51.09828 63.74088 50.95821 63.34476 50.72524 63.17355 50.62434 62.91751 50.44563 62.77792 50.34468 62.70816 50.26735 62.68454 50.1584 62.67654 50.04195 62.7001 49.94905 62.75436 49.81752 62.80154 49.68495 62.84775 49.55293 62.94864 49.3044 63.01089 49.17989 63.04202 49.07845 63.38345 48.37257 63.46127 48.22499 63.51547 48.13161 63.56216 47.97646 63.67862 47.70485 63.83377 47.38649 63.83377 47.30867 63.82626 47.22334 63.772 47.18416 63.65555 47.16109 63.57773 47.1144 63.43765 47.03706 63.27499 46.92061 63.18161 46.84279 63.10379 46.76497 63.03397 46.68764 62.85574 46.5782 62.61478 46.43111 62.38181 46.31459 62.3035 46.26039 62.21109 46.19057 62.03989 46.05049 61.939 45.99629 61.8461 45.93404 61.68295 45.81758 61.41129 45.56905 61.11612 45.35164 60.92984 45.18898 60.86758 45.11867 60.80484 45.03334 60.74307 44.93239 60.69687 44.87013 60.63461 44.79286 60.54123 44.69191 60.47147 44.63722 60.15311 44.38869 60.08334 44.35805 60.02109 44.34248 59.96689 44.31136 59.85794 44.21046 59.80417 44.18684 59.75699 44.1562 59.66409 44.0854 59.55569 43.99306 59.45425 43.95387 59.36893 43.90767 59.2449 43.84541 59.13596 43.80678 59.01944 43.76009 58.86435 43.6667 58.74783 43.58839 58.65445 43.52712 58.56058 43.44179 58.46017 43.3484 58.28195 43.20882 58.14987 43.11543 58.02536 43.03761 57.90891 42.98341 57.73068 42.89803 57.58304 42.82875 57.41232 42.71932 57.3345 42.64949 57.27225 42.57167 57.20248 42.52553 56.95395 42.2845 56.87613 42.21474 56.80685 42.16805 56.32486 41.7488 56.18527 41.66347 56.07632 41.61678 55.95987 41.56252 55.80527 41.51582 55.70383 41.4847 55.56326 41.4847 55.43167 41.47719 55.30014 41.51582 55.17563 41.57008 55.07474 41.61678 54.97382 41.68654 54.896 41.7488 54.76395 41.89644 54.67859 41.95869 54.37585 42.19917 54.19711 42.35432 53.9953 42.47078 53.77789 42.61086 53.66141 42.69618 53.59164 42.78157 53.53741 42.85133 53.51431 42.92116 53.49072 43.00697 53.45206 43.12349 53.39734 43.21632 53.32755 43.30171 53.22662 43.38704 53.13376 43.43373 53.02478 43.48799 52.9314 43.51912 52.83853 43.54268 52.76071 43.52712 52.69846 43.48799 52.62112 43.4493 52.55939 43.44179 52.45795 43.44179 52.35706 43.4493 52.27924 43.49599 52.13965 43.49599 52.03873 43.49599 51.94534 43.47243 51.85999 43.43373 51.7666 43.4026 51.67374 43.37148 51.40964 43.37148 51.27008 43.3951 51.18423 43.41817 51.07578 43.50356 50.9357 43.6667 50.8428 43.73647 50.75748 43.76759 50.66409 43.78316 50.54761 43.79872 50.43866 43.8304 50.32266 43.87654 50.22928 43.94637 50.16702 43.99306 50.12085 44.06282 50.07416 44.17934 50.02747 44.28774 49.99634 44.41225 49.93408 44.52071 49.85675 44.68391 49.81808 44.82448 49.79449 44.96352 49.74026 45.53035 49.70914 45.74776 49.67801 45.92653 49.65494 46.19814 49.61575 46.49336 49.56857 46.66402 49.53845 46.76497 49.50732 46.86586 49.46063 46.95924 49.39838 47.04463 49.34415 47.1144 49.26633 47.17665 49.18851 47.23085 49.10315 47.30867 48.90936 47.44826 48.68393 47.64259 48.45096 47.84438 48.24161 48.04622 48.09399 48.21693 47.95392 48.39565 47.92279 48.46547 47.853 48.62111 47.7988 48.69844 47.73654 48.77626 47.65921 48.87715 47.48801 49.10255 47.41821 49.24214 47.38708 49.36617 47.37152 49.46761 47.37152 49.79341 47.36401 49.94905 47.28616 50.02638 47.2164 50.06502 47.12302 50.08864 47.03766 50.08113 46.96786 50.01082 46.84384 49.90993 46.6882 49.80147 46.54111 49.71559 46.42413 49.66939 46.3468 49.6227 46.23785 49.59963 46.13696 49.57552 46.04407 49.56899 45.95871 49.55293 45.86533 49.52931 45.82565 49.47511 45.79553 49.38222 45.77194 49.25771 45.7644 49.14925 45.74884 49.07198 45.74081 48.95497 45.72525 48.86964 45.67908 48.65224 45.65546 48.59749 45.64795 48.50459 45.63235 48.44234 45.61679 48.35701 45.5932 48.29475 45.57062 48.20186 45.53897 48.14717 45.45364 48.12404 44.98773 48.11604 44.84012 48.09291 44.63828 48.0854 44.42841 48.09291 44.32397 48.09041 44.21252 48.09694 44.03229 48.08339 43.80283 48.07637 43.48352 48.06935 43.18481 48.08339 42.91418 48.1321 42.78918 48.20186 42.64307 48.26363 42.56525 48.31032 42.40961 48.37257 42.23889 48.4579 42.12244 48.55885 42.02151 48.65974 41.86636 48.8149 41.75742 48.99361 41.68011 49.13368 41.60983 49.28883 41.5556 49.43648 41.51694 49.56044 41.48581 49.70052 41.45468 49.80898 41.43912 49.96413 41.41553 50.40694 41.39243 50.52345 41.3613 50.66298 41.32965 50.79506 41.2915 50.93514 41.25284 51.0591 41.18307 51.19118 41.14389 51.33876 41.12082 51.45528 41.08215 51.55617 41.05856 51.69576 41.02744 51.8589 40.98123 51.99898 40.94962 52.13106 40.90341 52.26308 40.84869 52.37959 40.81805 52.54225 40.76334 52.6512 40.67798 52.86055 40.61572 53.21803 40.58511 53.38869 40.55399 53.70705 40.52286 53.92439 40.49173 54.13429 40.44504 54.27388 40.42194 54.3517 40.40637 54.46065 40.39081 54.60774 40.37524 54.71669 40.34412 54.82564 40.3215 55.09724 40.29742 55.22127 40.25876 55.33772 40.1965 55.43111 40.15784 55.50893 40.11115 55.67159 40.04135 55.77254 39.9791 55.85835 39.90933 55.98238 39.68439 56.26955 39.49762 56.48695 39.12509 56.89864 38.97748 57.06886 38.82236 57.23256 38.52713 57.54329 38.37952 57.65981 38.24747 57.74513 38.13101 57.87721 37.75845 58.2889 37.68063 58.38179 37.61087 58.42848 37.44769 58.64583 37.00537 59.11928 36.61676 59.50789 36.43802 59.60884 36.32205 59.6786 36.20508 59.74086 36.01129 59.93465 35.84811 60.09029 35.64627 60.23793 35.3822 60.40059 35.18839 60.51704 35.04077 60.58736 34.89319 60.62599 34.75311 60.64156 34.59042 60.64906 34.49704 60.67268 34.38055 60.71138 34.25604 60.75002 34.12451 60.76558 33.95331 60.79671 33.8298 60.81178 33.72839 60.8434 33.63501 60.8976 33.56522 60.97542 33.50296 61.06032 33.44873 61.15419 33.40204 61.28621 33.36337 61.38716 33.33929 61.51918 33.33929 61.86861 33.37091 61.94594 33.42563 62.02376 33.49542 62.09352 33.55719 62.15578 33.62747 62.21004 33.70477 62.27229 33.72034 62.32649 33.7359 62.42738 33.759 62.49721 33.78259 62.55898 33.86795 62.71462 33.89154 62.80098 33.89154 62.96309 33.87549 63.11073 33.83734 63.19606 33.77457 63.31203 33.33276 63.70869 33.17661 63.8091 33.12238 63.8091 33.06012 63.77846 33.01395 63.69313 32.95169 63.60024 32.92407 63.50435 32.90448 63.41347 32.87234 63.30904 32.83923 63.15944 32.82617 63.02937 32.76743 62.94453 32.69614 62.86671 32.53949 62.76228 32.40945 62.68398 32.33063 62.64479 32.25281 62.5981 32.15189 62.5439 31.9812 62.45857 31.83408 62.38875 31.7171 62.34206 31.48413 62.24117 31.35211 62.17134 31.22006 62.10158 30.90173 61.98512 30.67633 61.89925 30.29575 61.79829 29.93878 61.67433 29.8223 61.66628 29.63605 61.62007 29.48041 61.57338 29.1857 61.52669 29.03809 61.48805 28.78955 61.4258 28.56412 61.36354 28.15292 61.26259 27.91998 61.22395 27.77991 61.21596 27.64835 61.20839 27.5394 61.20839 27.40738 61.23952 27.13574 61.25508 26.4444 61.27815 26.19589 61.28621 26.0332 61.30879 25.862 61.34041 25.67575 61.37911 25.55173 61.41023 25.41968 61.39467 25.31073 61.3716 25.10892 61.36354 24.21573 61.34041 24.13037 61.29378 24.02194 61.22395 23.91299 61.14613 23.84369 61.07637 23.78094 60.98348 23.67249 60.77364 23.53241 60.5251 23.50128 60.41615 23.40842 60.02803 23.39285 59.84932 23.40039 59.7328 23.43152 59.60078 23.46265 59.49983 23.55603 59.29048 23.68002 58.94862 23.68805 58.80098 23.69559 58.62276 23.69559 58.49825 23.68002 58.35866 23.64136 58.23415 23.61023 58.09456 23.56354 57.96254 23.50934 57.86165 23.44708 57.7607 23.37729 57.66731 23.32306 57.58998 23.29947 57.47353 23.26834 57.33345 23.25327 57.1703 23.25327 57.03822 23.26834 56.93733 23.29947 56.84444 23.33862 56.75105 23.39285 56.65816 23.44708 56.58034 23.53241 56.48695 23.53241 56.42519 23.48572 56.31575 23.42398 56.25398 23.01981 56.02907 22.89581 55.98994 22.77179 55.92818 22.68594 55.90456 22.55438 55.7881 22.46854 55.74141 22.24362 55.63295 22.1427 55.59432 21.97952 55.4698 21.77771 55.33022 21.52115 55.14394 21.39713 55.08168 21.26508 55.05055 21.125 55.03499 20.94678 55.01942 20.76804 54.9883 20.65155 54.95717 20.57425 54.92653 20.39551 54.77089 20.31015 54.7242 20.15451 54.70912 20.1008 54.67799 19.89847 54.67 19.58768 54.67 19.54901 54.70113 19.44812 54.73976 19.36276 54.7242 19.24628 54.67799 19.12979 54.64687 18.91992 54.60774 18.72565 54.5771 18.62473 54.54598 18.18994 54.55348 18.03479 54.55348 17.93387 54.50679 17.84048 54.47621 17.70093 54.37477 17.62311 54.32002 17.52219 54.15736 17.44437 54.11116 17.32788 54.04091 17.20389 53.97914 17.0874 53.93245 17.01761 53.89327 16.97092 53.80043 16.96338 53.69148 16.98648 53.56795 17.03317 53.33449 17.04071 53.20998 17.02515 53.14821 16.99451 53.05483 17.02515 52.95393 17.0643 52.89168 17.07184 52.81484 17.09543 52.71346 17.18732 52.53218" fill="#f2e10a" fill-rule="evenodd" stroke="#fff" stroke-miterlimit="10" stroke-width=".25"/></g><g id="_اسماء_المحافظات"><g isolation="isolate"><path d="M178.37125,45.89992c-.34188,0-.61049-.09768-.80585-.26862-.19535-.18315-.29304-.41513-.29304-.72038,0-.32967.09768-.59828.29304-.80585s.46398-.31746.79364-.31746.59829.10989.79364.31746c.19535.21978.29304.48839.29304.80585,0,.30525-.09768.54944-.29304.73259-.17094.15873-.43955.25641-.78143.25641ZM177.65086,42.8963c0-.17094.13431-.30525.31745-.30525s.30525.1221.30525.30525c0,.08547-.02441.15873-.08546.21978-.18315.20757-.54944.06105-.53724-.21978ZM178.87185,44.86209c0-.34187-.18315-.56165-.5006-.56165s-.5006.21978-.5006.54944.19535.5006.51281.5006c.29304.01221.48839-.15873.48839-.48839ZM178.4445,42.8963c0-.18315.1221-.30525.31745-.30525.17094,0,.30525.13431.30525.30525s-.13431.31746-.30525.31746c-.17093,0-.31745-.13431-.31745-.31746Z"/><path d="M179.66549,46.26622c.45176-.06105.6227-.21978.6227-.6227v-1.81927h.57386v1.69717c0,.78143-.34188,1.18436-1.11109,1.23319l-.08546-.48839Z"/><path d="M181.81442,46.2418c.73259.04884,1.13552-.10989,1.13552-.5006-.13431.04884-.29304.07326-.47619.07326-.63491,0-1.02563-.3663-1.02563-.97679,0-.29304.09768-.54944.29304-.75701s.46398-.31746.78143-.31746c.65933,0,1.0012.41513,1.0012,1.00121v.94016c0,.70817-.46398,1.06226-1.3675,1.06226-.13431,0-.23199,0-.30525-.01221l-.03664-.51281ZM182.94994,45.24059v-.34187c0-.39072-.14651-.58607-.45176-.58607-.26861,0-.47619.20757-.47619.5006,0,.31746.19535.47618.53724.47618.1221,0,.2564-.01221.39071-.04884Z"/><path d="M185.44075,45.35048c.06105,0,.09768.09768.09768.26862,0,.15873-.03664.2442-.09768.2442h-.52503c-.09768.54944-.45176.85469-1.08668.89132l-.08546-.5006c.45176-.06105.6227-.21978.6227-.6227v-1.81927h.57386v1.52623h.5006v.01221h.00001Z"/><path d="M188.70077,43.83646h.57386v1.19656c0,.52502-.3663.84248-.91574.84248-.28083,0-.5006-.07326-.65933-.21978-.17094.14652-.40293.21978-.70818.21978-.32966,0-.56165-.07326-.69596-.23199-.14651.14652-.40293.23199-.757.23199h-.10989v-.51281h.10989c.30525,0,.41514-.1221.41514-.48839v-.68375h.57386v.84248c0,.21978.1221.32967.3785.32967.29304,0,.40293-.1221.40293-.48839v-.68375h.57386v.84248c0,.21978.13431.32967.39071.32967.31745,0,.40293-.14652.40293-.5006v-1.02563h.02443ZM186.89372,43.33586c0-.17094.13431-.30525.31745-.30525s.30525.1221.30525.30525-.1221.31746-.30525.31746-.31745-.13431-.31745-.31746ZM187.30885,42.67653c0-.17094.13431-.31746.30525-.31746s.30525.13431.30525.31746-.1221.31746-.30525.31746c-.17093,0-.30525-.13431-.30525-.31746ZM188.00482,43.03061c.17094,0,.30525.13431.30525.30525,0,.18315-.13431.31746-.30525.31746-.09768,0-.17094-.02442-.21978-.09768-.19535-.17094-.06105-.54945.21978-.52503Z"/></g><g isolation="isolate"><path d="M70.27751,31.76092c0,.15873-.03663.2442-.09768.2442-.43955,0-.70817-.07326-.84248-.20757-.20757.09768-.42734.14652-.65933.14652-.31745,0-.57386-.08547-.78143-.2442s-.31745-.39072-.31745-.68375.10989-.54944.32967-.7448.52502-.29304.92795-.29304h.92795v1.09889c0,.32967.09768.42734.42734.42734.04885-.01221.08548.08547.08548.25641ZM68.11637,29.08697c0-.17094.13431-.30525.31745-.30525s.30525.1221.30525.30525c0,.08547-.02442.15873-.08547.21978-.18314.20757-.56165.06105-.53723-.21978ZM69.15421,30.4911h-.41514c-.35409,0-.58607.17094-.58607.47618,0,.29304.19535.43956.58607.43956.17094,0,.30525-.02442.40292-.07326v-.84248h.01221ZM68.91001,29.08697c0-.18315.1221-.30525.31745-.30525.17094,0,.30525.1221.30525.30525,0,.17094-.13431.31746-.30525.31746-.18315,0-.31745-.13431-.31745-.31746Z"/><path d="M71.6328,29.91724c.32967,0,.58607.09768.78143.29304.18315.19536.26862.43956.26862.73259,0,.5006-.2442,1.06226-1.20878,1.06226h-1.29424v-.51281h.45177c-.09768-.14652-.14652-.34187-.14652-.54944,0-.30525.10989-.54944.31745-.7448.21978-.18315.5006-.28082.83027-.28082ZM71.53513,31.49231c.3785,0,.56165-.17094.56165-.52502,0-.31746-.19535-.51281-.5006-.51281-.31745,0-.52502.19536-.52502.54944,0,.17094.04884.34187.17094.48839h.29303Z"/><path d="M75.49112,31.49231c.06105,0,.09768.09768.09768.26862,0,.15873-.03663.2442-.09768.2442h-2.41755v-.51281h1.47739v-.01221c0-.21978-.08547-.43956-.26862-.65933s-.39072-.40292-.61049-.53723l.34187-.46397c.39072.25641.67154.51281.83027.78143.15873.26862.2442.57386.26862.90353h.3785v-.01221h0Z"/><path d="M75.49112,32.7255c0-.18315.13431-.31746.31745-.31746s.30525.13431.30525.31746c0,.17094-.1221.30525-.30525.30525s-.31745-.13431-.31745-.30525ZM75.49112,32.00512v-.51281h.09768c.39072,0,.5006-.13431.5006-.57386v-.95237h.57386v1.02563c0,.73259-.31745,1.01342-1.07446,1.01342h-.09768ZM76.28476,32.7255c0-.18315.13431-.31746.31745-.31746.17094,0,.30525.13431.30525.31746,0,.17094-.13431.30525-.30525.30525-.18315,0-.31745-.13431-.31745-.30525Z"/></g><g isolation="isolate"><path d="M41.95068,66.25373c.45177-.06105.6227-.21978.6227-.6227v-1.81927h.57386v1.69717c0,.78143-.34187,1.18436-1.1111,1.23319l-.08547-.48839Z"/><path d="M43.79436,64.94727v-2.78384h.57386v2.75942c0,.29304.14652.41514.51281.41514.06105,0,.09768.09768.09768.26862,0,.15873-.03663.2442-.09768.2442-.78143.01221-1.08668-.28082-1.08668-.90353Z"/><path d="M44.88104,65.86301v-.51281h.09768c.39072,0,.5006-.13431.5006-.57386v-.95237h.57386v1.02563c0,.73259-.31746,1.01342-1.07446,1.01342h-.09768ZM45.00314,62.96929c0-.17094.13431-.30525.31746-.30525s.30525.1221.30525.30525-.1221.31745-.30525.31745-.31746-.13431-.31746-.31745ZM45.41827,62.30995c0-.17094.13431-.31745.30525-.31745s.30525.13431.30525.31745-.1221.31745-.30525.31745c-.17094-.01221-.30525-.14651-.30525-.31745ZM45.79678,62.96929c0-.18315.1221-.30525.31746-.30525.17094,0,.30525.1221.30525.30525s-.13431.31745-.30525.31745c-.18315,0-.31746-.13431-.31746-.31745Z"/></g><path d="M6.89254,80.5216v-1.1332h-.38795v1.21491c0,.27565-.11229.37773-.41859.41859l.06123.32666c.51051-.04085.74531-.29608.74531-.82696Z"/><path d="M8.84254,80.77682c.50024,0,.71461-.17352.71461-.67381v-.69424h-.38795v.63301c0,.29608-.07144.37773-.32666.37773l-.23485-.01021c-.02043-.22459-.07144-.4288-.18373-.60237-.11235-.17352-.29608-.34709-.56152-.52067l-.23485.30629c.15315.10208.28587.22459.40837.36752.11235.15315.17357.29608.17357.44923v.01021h-.99032v.34709h1.62333v.01021Z"/><path d="M9.23049,81.02189c-.11229,0-.20421.09187-.20421.21437-.02043.18379.24501.27565.35736.14293.03058-.03064.05101-.08171.05101-.14293,0-.12251-.08165-.21437-.20416-.21437Z"/><path d="M5.55513,84.20717c0,.24501-.09192.33693-.31651.33693h-1.2864c-.30624,0-.47981-.13272-.47981-.38795,0-.08171.02043-.20421.06128-.35736l-.33693-.09187c-.06128.18379-.10208.35731-.10208.52067,0,.38795.30629.65339.80653.65339h1.45992c.38795,0,.59216-.21437.59216-.55131v-.81675h-.38795l-.01021.69424Z"/><path d="M4.3606,85.2077c-.0408.04085-.06123.09187-.06123.15315,0,.11229.08165.20416.20416.20416.12256,0,.20421-.08165.20421-.20416.02043-.194-.2348-.28587-.34715-.15315Z"/><path d="M8.24017,82.93103c-.02043.18373.2348.27565.35731.14293.07149-.07149.07149-.21443,0-.29608-.11229-.12251-.37773-.03064-.35731.15315Z"/><path d="M9.50614,85.2077c-.04085.04085-.06128.09187-.06128.15315,0,.11229.08171.20416.20421.20416s.20416-.08165.20416-.20416c.02043-.194-.2348-.28587-.34709-.15315Z"/><path d="M10.94563,84.15615c0,.29602-.06123.37773-.31651.37773h-.2348c.05107-.65339-.22459-1.0516-.87797-1.0516-.16336,0-.31651.02043-.44923.07149l.08165.32672c.12251-.02043.22464-.04085.32672-.04085.51045,0,.57173.40837.52067.69424h-1.01075v.00692c-.21616-.00435-.33688-.1133-.33688-.32343v-.69424h-.38795v.63296c0,.29608-.07149.37779-.32672.37779v.01021c-.00402-.00151-.00569-.01021-.01021-.01021l-.24501-.01021v-.38795c0-.38795-.24501-.6636-.67381-.6636-.21437,0-.38795.07144-.52067.21437s-.20421.31651-.20421.52067c0,.39816.27565.6636.78616.6636h.20416c-.05107.20421-.29608.29608-.75546.25523l.02037.34715c.07149.01021.13278.01021.194.01021.56152,0,.86781-.20421.92904-.60237h.26544c.00452,0,.0062-.00748.01021-.00876v.00876c.28587,0,.46965-.06123.58195-.19395.09025.13043.24166.19026.4696.19233v.00162h1.64371c.49008,0,.70445-.17352.70445-.64317v-1.82749h-.38795v1.74584ZM7.2907,84.53389h-.20421c-.27565,0-.40837-.11229-.40837-.34715,0-.20416.13272-.34709.31651-.34709.194,0,.29608.13272.29608.38795v.30629Z"/><rect x="11.77259" y="82.41031" width=".38795" height="2.47066"/><g isolation="isolate"><path d="M19.0328,81.8457v-1.8559h.37851v1.84368c0,.19535.09768.26862.34188.26862.03663,0,.06105.06105.06105.18315,0,.10989-.02442.15873-.06105.15873-.51281,0-.72038-.18314-.72038-.59828Z"/><path d="M19.75318,82.1021c.25641,0,.32967-.08547.32967-.3785v-.63491h.37851v.68375c0,.5006-.21978.67154-.70817.67154v-.34187ZM20.07064,80.50262c-.02442-.18315.2442-.26862.35408-.14652.07326.07326.07326.21978,0,.30525-.10989.1221-.3785.02442-.35408-.15873Z"/><path d="M22.43935,82.1021c.03663,0,.06105.06105.06105.18315,0,.10989-.02442.15873-.06105.15873h-.25641c-.06105.40292-.3663.59829-.91574.59829-.06105,0-.1221,0-.18315-.01221l-.02442-.34187c.45176.03663.70817-.04884.7448-.2564h-.20757c-.51281,0-.79364-.2564-.79364-.65933,0-.20757.07326-.3785.20757-.52502.13431-.13431.30525-.20757.52502-.20757.42734,0,.67154.26862.67154.65933v.39072l.23199.0122h0ZM21.60908,82.1021h.20757v-.30525c0-.2564-.09768-.39072-.29304-.39072-.18315,0-.31746.14652-.31746.35409-.01221.23199.1221.34187.40293.34187Z"/><path d="M23.56266,82.28525c0,.10989-.02442.15873-.06105.15873-.23199,0-.39071-.06105-.47618-.19535-.10989.13431-.30525.19535-.58607.19535v-.34187c.25641,0,.32967-.08547.32967-.3785v-.63491h.37851v.68375c0,.21978.1221.32967.35408.32967.04884,0,.06105.06105.06105.18315ZM23.1231,82.92016c0,.1221-.08547.20757-.20757.20757s-.20757-.08547-.20757-.20757c0-.06105.02442-.10989.06105-.14652.13431-.13431.3785-.03663.35408.14652Z"/><path d="M23.50161,82.44398v-.34187h1.01342c.04884-.28082-.01221-.69596-.51281-.69596-.09768,0-.20757.01221-.32967.04884l-.08547-.32967c.13431-.04884.28083-.07326.45176-.07326.51281,0,.81806.2564.8669.67154.02442.20757.01221.45177-.04884.72038h-1.3553Z"/></g><g isolation="isolate"><path d="M24.94237,93.49389c-.23199-.23199-.34188-.51281-.34188-.84248,0-.28082.07326-.57386.21978-.90353l.5006.17094c-.09768.2442-.14652.46397-.14652.64712,0,.47619.29304.73259.78143.73259.51281,0,.78143-.23199.78143-.83027v-1.18436h.57386v1.33088c0,.80585-.53723,1.20878-1.3675,1.20878-.43955.02441-.76922-.09768-1.00121-.32967ZM25.68717,90.67341c-.02442-.28082.3663-.40292.53723-.21978.10989.1221.10989.32967,0,.45177-.17094.18315-.56165.04883-.53723-.23199Z"/><path d="M27.9582,92.99328v-3.69958h.57386v3.68737l-.57386.01221h0Z"/><path d="M30.52227,92.46826c.06105,0,.09768.09768.09768.26862,0,.15873-.03663.2442-.09768.2442h-.52502c-.09768.54944-.45177.85469-1.08668.89132l-.08547-.5006c.45177-.06105.6227-.21978.6227-.6227v-1.81927h.57386v1.53844h.5006Z"/><path d="M32.98865,92.46826c.06105,0,.09768.09768.09768.26862,0,.15873-.03663.2442-.09768.2442h-2.45418v-.51281h1.51402c.07326-.42734-.01221-1.05004-.76922-1.05004-.14652,0-.31746.02442-.48839.07326l-.1221-.48839c.20757-.07326.42734-.10989.67154-.10989.97679,0,1.39192.59829,1.30645,1.57507h.34187ZM31.81651,93.70145c0,.17094-.1221.30525-.30525.30525s-.31746-.13431-.31746-.30525c0-.09768.02442-.17094.08547-.21978.19535-.20757.56165-.06105.53723.21978Z"/><path d="M32.98865,92.46826c.37851,0,.48839-.1221.48839-.57386v-.95237h.57386v1.02563c0,.7448-.32967,1.01342-1.07446,1.01342l.01221-.51281h0ZM33.45263,90.06292c-.02442-.28082.3663-.40292.53723-.21978.10989.1221.10989.32967,0,.45177-.17094.18315-.56165.04883-.53723-.23199Z"/></g><g isolation="isolate"><path d="M82.03559,83.16436h.57386v1.19656c0,.52502-.3663.84248-.91574.84248-.28082,0-.5006-.07326-.65933-.21978-.15873.14652-.39072.23199-.70817.23199-.19535,0-.35409-.03663-.47619-.10989-.09768.63491-.61049.95237-1.34308.95237-.43955,0-.76922-.1221-1.00121-.34187-.23199-.23199-.34187-.51281-.34187-.84248,0-.28082.07326-.57386.21978-.90353l.5006.17094c-.09768.2442-.14652.46397-.14652.64712,0,.47619.29304.73259.78143.73259.51281,0,.78143-.23199.78143-.83027v-1.18436h.57386v.84248c0,.21978.1221.32967.3785.32967.29304,0,.40292-.1221.40292-.48839v-.68375h.57386v.84248c0,.21978.13431.32967.39072.32967.30525,0,.39072-.14652.39072-.5006v-1.01342h.02442ZM80.22854,82.66376c0-.17094.13431-.30525.31745-.30525s.30525.1221.30525.30525-.1221.31745-.30525.31745c-.17093,0-.31745-.13431-.31745-.31745ZM80.65588,82.00443c0-.17094.13431-.31745.30525-.31745s.30525.13431.30525.31745-.1221.31745-.30525.31745c-.17094,0-.30525-.13431-.30525-.31745ZM81.35184,82.35851c.17094,0,.30525.13431.30525.30525,0,.18315-.13431.31745-.30525.31745-.09768,0-.17094-.02442-.21978-.09768-.20757-.17094-.07326-.54944.21978-.52502Z"/><path d="M83.1711,84.28767v-2.78384h.57386v2.75942c0,.29304.14652.41514.51281.41514.06105,0,.09768.09768.09768.26862,0,.15873-.03663.2442-.09768.2442-.78143.01221-1.08668-.26862-1.08668-.90353Z"/><path d="M85.94274,84.95921c0,.15873-.03663.2442-.09768.2442-.34187,0-.58607-.09768-.72038-.29304-.15873.19535-.45177.29304-.87911.29304v-.51281c.3785,0,.48839-.1221.48839-.57386v-.95237h.57386v1.02563c0,.32967.17094.48839.52502.48839.07326.01221.10989.09768.10989.28082ZM85.28341,85.91158c0,.17094-.1221.30525-.30525.30525s-.31745-.13431-.31745-.30525c0-.09768.02442-.17094.08547-.21978.19535-.19535.56165-.06105.53723.21978Z"/><path d="M85.84506,85.20341v-.51281h1.51402c.07326-.42734-.01221-1.05004-.76922-1.05004-.14652,0-.31745.02442-.48839.07326l-.1221-.48839c.20757-.07326.42734-.10989.67154-.10989.78143,0,1.22098.39072,1.29424,1.01342.03663.30525.01221.67154-.07326,1.08668l-2.02684-.01221h0ZM86.32124,82.2242c-.02442-.28082.3663-.40292.53724-.21978.10989.1221.10989.32967,0,.45177-.17094.18315-.56165.04884-.53724-.23199Z"/></g></g></svg>